<svg width="1358" height="485" viewBox="0 0 1358 485" fill="none" xmlns="http://www.w3.org/2000/svg">
<rect width="1358" height="485" fill="white"/>
<rect width="1358" height="485" fill="#0E1B1B"/>
<path d="M876.705 368.944H875.467V367.729C875.467 367.327 875.133 367 874.724 367C874.315 367 873.981 367.327 873.981 367.729V368.944H872.743C872.334 368.944 872 369.271 872 369.673C872 370.075 872.334 370.402 872.743 370.402H873.981V371.617C873.981 372.019 874.315 372.346 874.724 372.346C875.133 372.346 875.467 372.019 875.467 371.617V370.402H876.705C877.114 370.402 877.448 370.075 877.448 369.673C877.448 369.271 877.114 368.944 876.705 368.944Z" fill="#FFF3EA"/>
<path d="M931.705 35.944H930.467V34.729C930.467 34.327 930.133 34 929.724 34C929.315 34 928.981 34.327 928.981 34.729V35.944H927.743C927.334 35.944 927 36.271 927 36.673C927 37.075 927.334 37.402 927.743 37.402H928.981V38.617C928.981 39.019 929.315 39.346 929.724 39.346C930.133 39.346 930.467 39.019 930.467 38.617V37.402H931.705C932.114 37.402 932.448 37.075 932.448 36.673C932.448 36.271 932.114 35.944 931.705 35.944Z" fill="#FFF3EA"/>
<path d="M886.705 84.944H885.467V83.729C885.467 83.327 885.133 83 884.724 83C884.315 83 883.981 83.327 883.981 83.729V84.944H882.743C882.334 84.944 882 85.271 882 85.673C882 86.075 882.334 86.402 882.743 86.402H883.981V87.617C883.981 88.019 884.315 88.346 884.724 88.346C885.133 88.346 885.467 88.019 885.467 87.617V86.402H886.705C887.114 86.402 887.448 86.075 887.448 85.673C887.448 85.271 887.114 84.944 886.705 84.944Z" fill="#FFF3EA"/>
<path d="M1002.71 83.944H1001.47V82.729C1001.47 82.327 1001.13 82 1000.72 82C1000.32 82 999.981 82.327 999.981 82.729V83.944H998.743C998.334 83.944 998 84.271 998 84.673C998 85.075 998.334 85.402 998.743 85.402H999.981V86.617C999.981 87.019 1000.32 87.346 1000.72 87.346C1001.13 87.346 1001.47 87.019 1001.47 86.617V85.402H1002.71C1003.11 85.402 1003.45 85.075 1003.45 84.673C1003.45 84.271 1003.11 83.944 1002.71 83.944Z" fill="#FFF3EA"/>
<path d="M446.705 373.944H445.467V372.729C445.467 372.327 445.133 372 444.724 372C444.315 372 443.981 372.327 443.981 372.729V373.944H442.743C442.334 373.944 442 374.271 442 374.673C442 375.075 442.334 375.402 442.743 375.402H443.981V376.617C443.981 377.019 444.315 377.346 444.724 377.346C445.133 377.346 445.467 377.019 445.467 376.617V375.402H446.705C447.114 375.402 447.448 375.075 447.448 374.673C447.448 374.271 447.114 373.944 446.705 373.944Z" fill="#FFF3EA"/>
<path d="M401.705 422.944H400.467V421.729C400.467 421.327 400.133 421 399.724 421C399.315 421 398.981 421.327 398.981 421.729V422.944H397.743C397.334 422.944 397 423.271 397 423.673C397 424.075 397.334 424.402 397.743 424.402H398.981V425.617C398.981 426.019 399.315 426.346 399.724 426.346C400.133 426.346 400.467 426.019 400.467 425.617V424.402H401.705C402.114 424.402 402.448 424.075 402.448 423.673C402.448 423.271 402.114 422.944 401.705 422.944Z" fill="#FFF3EA"/>
<path d="M517.705 421.944H516.467V420.729C516.467 420.327 516.133 420 515.724 420C515.315 420 514.981 420.327 514.981 420.729V421.944H513.743C513.334 421.944 513 422.271 513 422.673C513 423.075 513.334 423.402 513.743 423.402H514.981V424.617C514.981 425.019 515.315 425.346 515.724 425.346C516.133 425.346 516.467 425.019 516.467 424.617V423.402H517.705C518.114 423.402 518.448 423.075 518.448 422.673C518.448 422.271 518.114 421.944 517.705 421.944Z" fill="#FFF3EA"/>
<path d="M1276.71 420.944H1275.47V419.729C1275.47 419.327 1275.13 419 1274.72 419C1274.32 419 1273.98 419.327 1273.98 419.729V420.944H1272.74C1272.33 420.944 1272 421.271 1272 421.673C1272 422.075 1272.33 422.402 1272.74 422.402H1273.98V423.617C1273.98 424.019 1274.32 424.346 1274.72 424.346C1275.13 424.346 1275.47 424.019 1275.47 423.617V422.402H1276.71C1277.11 422.402 1277.45 422.075 1277.45 421.673C1277.45 421.271 1277.11 420.944 1276.71 420.944Z" fill="#FFF3EA"/>
<path d="M1231.71 469.944H1230.47V468.729C1230.47 468.327 1230.13 468 1229.72 468C1229.32 468 1228.98 468.327 1228.98 468.729V469.944H1227.74C1227.33 469.944 1227 470.271 1227 470.673C1227 471.075 1227.33 471.402 1227.74 471.402H1228.98V472.617C1228.98 473.019 1229.32 473.346 1229.72 473.346C1230.13 473.346 1230.47 473.019 1230.47 472.617V471.402H1231.71C1232.11 471.402 1232.45 471.075 1232.45 470.673C1232.45 470.271 1232.11 469.944 1231.71 469.944Z" fill="#FFF3EA"/>
<path d="M1347.71 468.944H1346.47V467.729C1346.47 467.327 1346.13 467 1345.72 467C1345.32 467 1344.98 467.327 1344.98 467.729V468.944H1343.74C1343.33 468.944 1343 469.271 1343 469.673C1343 470.075 1343.33 470.402 1343.74 470.402H1344.98V471.617C1344.98 472.019 1345.32 472.346 1345.72 472.346C1346.13 472.346 1346.47 472.019 1346.47 471.617V470.402H1347.71C1348.11 470.402 1348.45 470.075 1348.45 469.673C1348.45 469.271 1348.11 468.944 1347.71 468.944Z" fill="#FFF3EA"/>
<path d="M1162.71 356.944H1161.47V355.729C1161.47 355.327 1161.13 355 1160.72 355C1160.32 355 1159.98 355.327 1159.98 355.729V356.944H1158.74C1158.33 356.944 1158 357.271 1158 357.673C1158 358.075 1158.33 358.402 1158.74 358.402H1159.98V359.617C1159.98 360.019 1160.32 360.346 1160.72 360.346C1161.13 360.346 1161.47 360.019 1161.47 359.617V358.402H1162.71C1163.11 358.402 1163.45 358.075 1163.45 357.673C1163.45 357.271 1163.11 356.944 1162.71 356.944Z" fill="#FFF3EA"/>
<path d="M1117.71 405.944H1116.47V404.729C1116.47 404.327 1116.13 404 1115.72 404C1115.32 404 1114.98 404.327 1114.98 404.729V405.944H1113.74C1113.33 405.944 1113 406.271 1113 406.673C1113 407.075 1113.33 407.402 1113.74 407.402H1114.98V408.617C1114.98 409.019 1115.32 409.346 1115.72 409.346C1116.13 409.346 1116.47 409.019 1116.47 408.617V407.402H1117.71C1118.11 407.402 1118.45 407.075 1118.45 406.673C1118.45 406.271 1118.11 405.944 1117.71 405.944Z" fill="#FFF3EA"/>
<path d="M1233.71 404.944H1232.47V403.729C1232.47 403.327 1232.13 403 1231.72 403C1231.32 403 1230.98 403.327 1230.98 403.729V404.944H1229.74C1229.33 404.944 1229 405.271 1229 405.673C1229 406.075 1229.33 406.402 1229.74 406.402H1230.98V407.617C1230.98 408.019 1231.32 408.346 1231.72 408.346C1232.13 408.346 1232.47 408.019 1232.47 407.617V406.402H1233.71C1234.11 406.402 1234.45 406.075 1234.45 405.673C1234.45 405.271 1234.11 404.944 1233.71 404.944Z" fill="#FFF3EA"/>
<path d="M1044.71 13.944H1043.47V12.729C1043.47 12.327 1043.13 12 1042.72 12C1042.32 12 1041.98 12.327 1041.98 12.729V13.944H1040.74C1040.33 13.944 1040 14.271 1040 14.673C1040 15.075 1040.33 15.402 1040.74 15.402H1041.98V16.617C1041.98 17.019 1042.32 17.346 1042.72 17.346C1043.13 17.346 1043.47 17.019 1043.47 16.617V15.402H1044.71C1045.11 15.402 1045.45 15.075 1045.45 14.673C1045.45 14.271 1045.11 13.944 1044.71 13.944Z" fill="#FFF3EA"/>
<path d="M999.705 62.944H998.467V61.729C998.467 61.327 998.133 61 997.724 61C997.315 61 996.981 61.327 996.981 61.729V62.944H995.743C995.334 62.944 995 63.271 995 63.673C995 64.075 995.334 64.402 995.743 64.402H996.981V65.617C996.981 66.019 997.315 66.346 997.724 66.346C998.133 66.346 998.467 66.019 998.467 65.617V64.402H999.705C1000.11 64.402 1000.45 64.075 1000.45 63.673C1000.45 63.271 1000.11 62.944 999.705 62.944Z" fill="#FFF3EA"/>
<path d="M1115.71 61.944H1114.47V60.729C1114.47 60.327 1114.13 60 1113.72 60C1113.32 60 1112.98 60.327 1112.98 60.729V61.944H1111.74C1111.33 61.944 1111 62.271 1111 62.673C1111 63.075 1111.33 63.402 1111.74 63.402H1112.98V64.617C1112.98 65.019 1113.32 65.346 1113.72 65.346C1114.13 65.346 1114.47 65.019 1114.47 64.617V63.402H1115.71C1116.11 63.402 1116.45 63.075 1116.45 62.673C1116.45 62.271 1116.11 61.944 1115.71 61.944Z" fill="#FFF3EA"/>
<path d="M1247.71 30.944H1246.47V29.729C1246.47 29.327 1246.13 29 1245.72 29C1245.32 29 1244.98 29.327 1244.98 29.729V30.944H1243.74C1243.33 30.944 1243 31.271 1243 31.673C1243 32.075 1243.33 32.402 1243.74 32.402H1244.98V33.617C1244.98 34.019 1245.32 34.346 1245.72 34.346C1246.13 34.346 1246.47 34.019 1246.47 33.617V32.402H1247.71C1248.11 32.402 1248.45 32.075 1248.45 31.673C1248.45 31.271 1248.11 30.944 1247.71 30.944Z" fill="#FFF3EA"/>
<path d="M1202.71 79.944H1201.47V78.729C1201.47 78.327 1201.13 78 1200.72 78C1200.32 78 1199.98 78.327 1199.98 78.729V79.944H1198.74C1198.33 79.944 1198 80.271 1198 80.673C1198 81.075 1198.33 81.402 1198.74 81.402H1199.98V82.617C1199.98 83.019 1200.32 83.346 1200.72 83.346C1201.13 83.346 1201.47 83.019 1201.47 82.617V81.402H1202.71C1203.11 81.402 1203.45 81.075 1203.45 80.673C1203.45 80.271 1203.11 79.944 1202.71 79.944Z" fill="#FFF3EA"/>
<path d="M1318.71 78.944H1317.47V77.729C1317.47 77.327 1317.13 77 1316.72 77C1316.32 77 1315.98 77.327 1315.98 77.729V78.944H1314.74C1314.33 78.944 1314 79.271 1314 79.673C1314 80.075 1314.33 80.402 1314.74 80.402H1315.98V81.617C1315.98 82.019 1316.32 82.346 1316.72 82.346C1317.13 82.346 1317.47 82.019 1317.47 81.617V80.402H1318.71C1319.11 80.402 1319.45 80.075 1319.45 79.673C1319.45 79.271 1319.11 78.944 1318.71 78.944Z" fill="#FFF3EA"/>
<path d="M1228.71 341.944H1227.47V340.729C1227.47 340.327 1227.13 340 1226.72 340C1226.32 340 1225.98 340.327 1225.98 340.729V341.944H1224.74C1224.33 341.944 1224 342.271 1224 342.673C1224 343.075 1224.33 343.402 1224.74 343.402H1225.98V344.617C1225.98 345.019 1226.32 345.346 1226.72 345.346C1227.13 345.346 1227.47 345.019 1227.47 344.617V343.402H1228.71C1229.11 343.402 1229.45 343.075 1229.45 342.673C1229.45 342.271 1229.11 341.944 1228.71 341.944Z" fill="#FFF3EA"/>
<path d="M1183.71 390.944H1182.47V389.729C1182.47 389.327 1182.13 389 1181.72 389C1181.32 389 1180.98 389.327 1180.98 389.729V390.944H1179.74C1179.33 390.944 1179 391.271 1179 391.673C1179 392.075 1179.33 392.402 1179.74 392.402H1180.98V393.617C1180.98 394.019 1181.32 394.346 1181.72 394.346C1182.13 394.346 1182.47 394.019 1182.47 393.617V392.402H1183.71C1184.11 392.402 1184.45 392.075 1184.45 391.673C1184.45 391.271 1184.11 390.944 1183.71 390.944Z" fill="#FFF3EA"/>
<path d="M1299.71 389.944H1298.47V388.729C1298.47 388.327 1298.13 388 1297.72 388C1297.32 388 1296.98 388.327 1296.98 388.729V389.944H1295.74C1295.33 389.944 1295 390.271 1295 390.673C1295 391.075 1295.33 391.402 1295.74 391.402H1296.98V392.617C1296.98 393.019 1297.32 393.346 1297.72 393.346C1298.13 393.346 1298.47 393.019 1298.47 392.617V391.402H1299.71C1300.11 391.402 1300.45 391.075 1300.45 390.673C1300.45 390.271 1300.11 389.944 1299.71 389.944Z" fill="#FFF3EA"/>
<path d="M791.705 359.944H790.467V358.729C790.467 358.327 790.133 358 789.724 358C789.315 358 788.981 358.327 788.981 358.729V359.944H787.743C787.334 359.944 787 360.271 787 360.673C787 361.075 787.334 361.402 787.743 361.402H788.981V362.617C788.981 363.019 789.315 363.346 789.724 363.346C790.133 363.346 790.467 363.019 790.467 362.617V361.402H791.705C792.114 361.402 792.448 361.075 792.448 360.673C792.448 360.271 792.114 359.944 791.705 359.944Z" fill="#FFF3EA"/>
<path d="M746.705 408.944H745.467V407.729C745.467 407.327 745.133 407 744.724 407C744.315 407 743.981 407.327 743.981 407.729V408.944H742.743C742.334 408.944 742 409.271 742 409.673C742 410.075 742.334 410.402 742.743 410.402H743.981V411.617C743.981 412.019 744.315 412.346 744.724 412.346C745.133 412.346 745.467 412.019 745.467 411.617V410.402H746.705C747.114 410.402 747.448 410.075 747.448 409.673C747.448 409.271 747.114 408.944 746.705 408.944Z" fill="#FFF3EA"/>
<path d="M862.705 407.944H861.467V406.729C861.467 406.327 861.133 406 860.724 406C860.315 406 859.981 406.327 859.981 406.729V407.944H858.743C858.334 407.944 858 408.271 858 408.673C858 409.075 858.334 409.402 858.743 409.402H859.981V410.617C859.981 411.019 860.315 411.346 860.724 411.346C861.133 411.346 861.467 411.019 861.467 410.617V409.402H862.705C863.114 409.402 863.448 409.075 863.448 408.673C863.448 408.271 863.114 407.944 862.705 407.944Z" fill="#FFF3EA"/>
<path d="M97.705 335.944H96.467V334.729C96.467 334.327 96.133 334 95.724 334C95.315 334 94.981 334.327 94.981 334.729V335.944H93.743C93.334 335.944 93 336.271 93 336.673C93 337.075 93.334 337.402 93.743 337.402H94.981V338.617C94.981 339.019 95.315 339.346 95.724 339.346C96.133 339.346 96.467 339.019 96.467 338.617V337.402H97.705C98.114 337.402 98.448 337.075 98.448 336.673C98.448 336.271 98.114 335.944 97.705 335.944Z" fill="#FFF3EA"/>
<path d="M52.705 384.944H51.467V383.729C51.467 383.327 51.133 383 50.724 383C50.315 383 49.981 383.327 49.981 383.729V384.944H48.743C48.334 384.944 48 385.271 48 385.673C48 386.075 48.334 386.402 48.743 386.402H49.981V387.617C49.981 388.019 50.315 388.346 50.724 388.346C51.133 388.346 51.467 388.019 51.467 387.617V386.402H52.705C53.114 386.402 53.448 386.075 53.448 385.673C53.448 385.271 53.114 384.944 52.705 384.944Z" fill="#FFF3EA"/>
<path d="M168.705 383.944H167.467V382.729C167.467 382.327 167.133 382 166.724 382C166.315 382 165.981 382.327 165.981 382.729V383.944H164.743C164.334 383.944 164 384.271 164 384.673C164 385.075 164.334 385.402 164.743 385.402H165.981V386.617C165.981 387.019 166.315 387.346 166.724 387.346C167.133 387.346 167.467 387.019 167.467 386.617V385.402H168.705C169.114 385.402 169.448 385.075 169.448 384.673C169.448 384.271 169.114 383.944 168.705 383.944Z" fill="#FFF3EA"/>
<path d="M75.705 142.944H74.467V141.729C74.467 141.327 74.133 141 73.724 141C73.315 141 72.981 141.327 72.981 141.729V142.944H71.743C71.334 142.944 71 143.271 71 143.673C71 144.075 71.334 144.402 71.743 144.402H72.981V145.617C72.981 146.019 73.315 146.346 73.724 146.346C74.133 146.346 74.467 146.019 74.467 145.617V144.402H75.705C76.114 144.402 76.448 144.075 76.448 143.673C76.448 143.271 76.114 142.944 75.705 142.944Z" fill="#FFF3EA"/>
<path d="M30.705 191.944H29.467V190.729C29.467 190.327 29.133 190 28.724 190C28.315 190 27.981 190.327 27.981 190.729V191.944H26.743C26.334 191.944 26 192.271 26 192.673C26 193.075 26.334 193.402 26.743 193.402H27.981V194.617C27.981 195.019 28.315 195.346 28.724 195.346C29.133 195.346 29.467 195.019 29.467 194.617V193.402H30.705C31.114 193.402 31.448 193.075 31.448 192.673C31.448 192.271 31.114 191.944 30.705 191.944Z" fill="#FFF3EA"/>
<path d="M146.705 190.944H145.467V189.729C145.467 189.327 145.133 189 144.724 189C144.315 189 143.981 189.327 143.981 189.729V190.944H142.743C142.334 190.944 142 191.271 142 191.673C142 192.075 142.334 192.402 142.743 192.402H143.981V193.617C143.981 194.019 144.315 194.346 144.724 194.346C145.133 194.346 145.467 194.019 145.467 193.617V192.402H146.705C147.114 192.402 147.448 192.075 147.448 191.673C147.448 191.271 147.114 190.944 146.705 190.944Z" fill="#FFF3EA"/>
<path d="M59.705 43.944H58.467V42.729C58.467 42.327 58.133 42 57.724 42C57.315 42 56.981 42.327 56.981 42.729V43.944H55.743C55.334 43.944 55 44.271 55 44.673C55 45.075 55.334 45.402 55.743 45.402H56.981V46.617C56.981 47.019 57.315 47.346 57.724 47.346C58.133 47.346 58.467 47.019 58.467 46.617V45.402H59.705C60.114 45.402 60.448 45.075 60.448 44.673C60.448 44.271 60.114 43.944 59.705 43.944Z" fill="#FFF3EA"/>
<path d="M14.705 92.944H13.467V91.729C13.467 91.327 13.133 91 12.724 91C12.315 91 11.981 91.327 11.981 91.729V92.944H10.743C10.334 92.944 10 93.271 10 93.673C10 94.075 10.334 94.402 10.743 94.402H11.981V95.617C11.981 96.019 12.315 96.346 12.724 96.346C13.133 96.346 13.467 96.019 13.467 95.617V94.402H14.705C15.114 94.402 15.448 94.075 15.448 93.673C15.448 93.271 15.114 92.944 14.705 92.944Z" fill="#FFF3EA"/>
<path d="M130.705 91.944H129.467V90.729C129.467 90.327 129.133 90 128.724 90C128.315 90 127.981 90.327 127.981 90.729V91.944H126.743C126.334 91.944 126 92.271 126 92.673C126 93.075 126.334 93.402 126.743 93.402H127.981V94.617C127.981 95.019 128.315 95.346 128.724 95.346C129.133 95.346 129.467 95.019 129.467 94.617V93.402H130.705C131.114 93.402 131.448 93.075 131.448 92.673C131.448 92.271 131.114 91.944 130.705 91.944Z" fill="#FFF3EA"/>
<path d="M979.705 65.944H978.467V64.729C978.467 64.327 978.133 64 977.724 64C977.315 64 976.981 64.327 976.981 64.729V65.944H975.743C975.334 65.944 975 66.271 975 66.673C975 67.075 975.334 67.402 975.743 67.402H976.981V68.617C976.981 69.019 977.315 69.346 977.724 69.346C978.133 69.346 978.467 69.019 978.467 68.617V67.402H979.705C980.114 67.402 980.448 67.075 980.448 66.673C980.448 66.271 980.114 65.944 979.705 65.944Z" fill="#FFF3EA"/>
<path d="M934.705 114.944H933.467V113.729C933.467 113.327 933.133 113 932.724 113C932.315 113 931.981 113.327 931.981 113.729V114.944H930.743C930.334 114.944 930 115.271 930 115.673C930 116.075 930.334 116.402 930.743 116.402H931.981V117.617C931.981 118.019 932.315 118.346 932.724 118.346C933.133 118.346 933.467 118.019 933.467 117.617V116.402H934.705C935.114 116.402 935.448 116.075 935.448 115.673C935.448 115.271 935.114 114.944 934.705 114.944Z" fill="#FFF3EA"/>
<path d="M1050.71 113.944H1049.47V112.729C1049.47 112.327 1049.13 112 1048.72 112C1048.32 112 1047.98 112.327 1047.98 112.729V113.944H1046.74C1046.33 113.944 1046 114.271 1046 114.673C1046 115.075 1046.33 115.402 1046.74 115.402H1047.98V116.617C1047.98 117.019 1048.32 117.346 1048.72 117.346C1049.13 117.346 1049.47 117.019 1049.47 116.617V115.402H1050.71C1051.11 115.402 1051.45 115.075 1051.45 114.673C1051.45 114.271 1051.11 113.944 1050.71 113.944Z" fill="#FFF3EA"/>
<path d="M592.705 449.944H591.467V448.729C591.467 448.327 591.133 448 590.724 448C590.315 448 589.981 448.327 589.981 448.729V449.944H588.743C588.334 449.944 588 450.271 588 450.673C588 451.075 588.334 451.402 588.743 451.402H589.981V452.617C589.981 453.019 590.315 453.346 590.724 453.346C591.133 453.346 591.467 453.019 591.467 452.617V451.402H592.705C593.114 451.402 593.448 451.075 593.448 450.673C593.448 450.271 593.114 449.944 592.705 449.944Z" fill="#FFF3EA"/>
<path d="M788.705 449.944H787.467V448.729C787.467 448.327 787.133 448 786.724 448C786.315 448 785.981 448.327 785.981 448.729V449.944H784.743C784.334 449.944 784 450.271 784 450.673C784 451.075 784.334 451.402 784.743 451.402H785.981V452.617C785.981 453.019 786.315 453.346 786.724 453.346C787.133 453.346 787.467 453.019 787.467 452.617V451.402H788.705C789.114 451.402 789.448 451.075 789.448 450.673C789.448 450.271 789.114 449.944 788.705 449.944Z" fill="#FFF3EA"/>
<rect x="297" y="152.4" width="764" height="157.2" rx="5" fill="#FFF3EA"/>
<ellipse cx="678.5" cy="231" rx="131.5" ry="131" fill="#FFF3EA"/>
<path d="M1029.94 227.836C1027.81 229.815 1027.81 233.185 1029.94 235.164L1069.35 271.76C1072.55 274.731 1077.75 272.463 1077.75 268.097V194.903C1077.75 190.537 1072.55 188.269 1069.35 191.24L1029.94 227.836Z" fill="#0E1B1B"/>
<path d="M327.055 227.836C329.185 229.815 329.185 233.185 327.055 235.164L287.653 271.76C284.454 274.731 279.25 272.463 279.25 268.097V194.903C279.25 190.537 284.454 188.269 287.653 191.24L327.055 227.836Z" fill="#0E1B1B"/>
<path d="M94.8411 220.546C89.9595 218.31 91.5539 211 96.9232 211H275.09C275.879 211 276.658 211.187 277.361 211.546L307.371 226.847C310.989 228.692 311.015 233.852 307.416 235.733L277.379 251.431C276.664 251.805 275.87 252 275.063 252H96.4154C91.072 252 89.4536 244.745 94.2905 242.474L108.445 235.829C112.298 234.02 112.272 228.53 108.402 226.757L94.8411 220.546Z" fill="#FFF3EA"/>
<path d="M1262.16 220.546C1267.04 218.31 1265.45 211 1260.08 211H1081.91C1081.12 211 1080.34 211.187 1079.64 211.546L1049.63 226.847C1046.01 228.692 1045.98 233.852 1049.58 235.733L1079.62 251.431C1080.34 251.805 1081.13 252 1081.94 252H1260.58C1265.93 252 1267.55 244.745 1262.71 242.474L1248.56 235.829C1244.7 234.02 1244.73 228.53 1248.6 226.757L1262.16 220.546Z" fill="#FFF3EA"/>
<line x1="524" y1="53.19" x2="834.8" y2="53.19" stroke="#FFF3EA" stroke-width="3.7"/>
<line x1="528" y1="398.15" x2="838.8" y2="398.15" stroke="#FFF3EA" stroke-width="3.7"/>
<path d="M710.85 54.67C710.85 72.2437 696.604 86.49 679.03 86.49C661.456 86.49 647.21 72.2437 647.21 54.67C647.21 37.0963 661.456 22.85 679.03 22.85C696.604 22.85 710.85 37.0963 710.85 54.67Z" fill="#0E1B1B" stroke="#FFF3EA" stroke-width="3.7"/>
<line x1="511" y1="346.5" x2="563" y2="346.5" stroke="#FFF3EA" stroke-width="5"/>
<line x1="274" y1="346.5" x2="372" y2="346.5" stroke="#FFF3EA" stroke-width="5"/>
<line x1="252.5" y1="316" x2="252.5" y2="300" stroke="#FFF3EA" stroke-width="5"/>
<line x1="252.5" y1="287" x2="252.5" y2="258" stroke="#FFF3EA" stroke-width="5"/>
<line x1="1093.5" y1="313" x2="1093.5" y2="297" stroke="#FFF3EA" stroke-width="5"/>
<line x1="1093.5" y1="284" x2="1093.5" y2="255" stroke="#FFF3EA" stroke-width="5"/>
<line x1="252.5" y1="203" x2="252.5" y2="194" stroke="#FFF3EA" stroke-width="5"/>
<line x1="251.5" y1="182" x2="251.5" y2="158" stroke="#FFF3EA" stroke-width="5"/>
<line x1="1093.5" y1="204" x2="1093.5" y2="195" stroke="#FFF3EA" stroke-width="5"/>
<line x1="1092.5" y1="183" x2="1092.5" y2="159" stroke="#FFF3EA" stroke-width="5"/>
<line x1="383" y1="346.5" x2="493" y2="346.5" stroke="#FFF3EA" stroke-width="5"/>
<line y1="-2.5" x2="52" y2="-2.5" transform="matrix(-1 0 0 1 844 349)" stroke="#FFF3EA" stroke-width="5"/>
<line y1="-2.5" x2="85" y2="-2.5" transform="matrix(-1 0 0 1 1074 349)" stroke="#FFF3EA" stroke-width="5"/>
<line y1="-2.5" x2="110" y2="-2.5" transform="matrix(-1 0 0 1 972 349)" stroke="#FFF3EA" stroke-width="5"/>
<line x1="509" y1="121.5" x2="561" y2="121.5" stroke="#FFF3EA" stroke-width="5"/>
<line x1="241" y1="293.5" x2="264" y2="293.5" stroke="#FFF3EA" stroke-width="5"/>
<line x1="281" y1="121.5" x2="360" y2="121.5" stroke="#FFF3EA" stroke-width="5"/>
<line x1="381" y1="121.5" x2="491" y2="121.5" stroke="#FFF3EA" stroke-width="5"/>
<line y1="-2.5" x2="52" y2="-2.5" transform="matrix(-1 0 0 1 842 124)" stroke="#FFF3EA" stroke-width="5"/>
<line y1="-2.5" x2="95" y2="-2.5" transform="matrix(-1 0 0 1 1079 124)" stroke="#FFF3EA" stroke-width="5"/>
<line y1="-2.5" x2="110" y2="-2.5" transform="matrix(-1 0 0 1 970 124)" stroke="#FFF3EA" stroke-width="5"/>
<path d="M199.139 44.357L195.41 30.659L191.681 44.356C191.658 44.439 191.597 44.501 191.515 44.526L179.412 48.189L191.514 51.852C191.597 51.877 191.658 51.939 191.68 52.021L195.41 65.719L199.139 52.022C199.162 51.939 199.223 51.877 199.305 51.852L211.408 48.189L199.306 44.526C199.222 44.501 199.162 44.439 199.139 44.357Z" fill="#FFF3EA"/>
<path d="M177.804 61.74C177.725 61.716 177.659 61.649 177.639 61.569L174.61 50.127L171.58 61.57C171.56 61.65 171.494 61.717 171.415 61.74L161.583 64.716L171.415 67.691C171.494 67.715 171.56 67.782 171.58 67.862L174.609 79.304L177.638 67.862C177.658 67.782 177.724 67.715 177.803 67.692L187.635 64.716L177.804 61.74Z" fill="#FFF3EA"/>
<path d="M206.305 74.681H205.067V73.466C205.067 73.064 204.733 72.737 204.324 72.737C203.915 72.737 203.581 73.064 203.581 73.466V74.681H202.343C201.934 74.681 201.6 75.008 201.6 75.41C201.6 75.812 201.934 76.139 202.343 76.139H203.581V77.354C203.581 77.756 203.915 78.083 204.324 78.083C204.733 78.083 205.067 77.756 205.067 77.354V76.139H206.305C206.714 76.139 207.048 75.812 207.048 75.41C207.048 75.008 206.714 74.681 206.305 74.681Z" fill="#FFF3EA"/>
<path d="M206.305 74.6811H205.067V73.4661C205.067 73.0641 204.733 72.7371 204.324 72.7371C203.915 72.7371 203.581 73.0641 203.581 73.4661V74.6811H202.343C201.934 74.6811 201.6 75.0081 201.6 75.4101C201.6 75.8121 201.934 76.1391 202.343 76.1391H203.581V77.3541C203.581 77.7561 203.915 78.0831 204.324 78.0831C204.733 78.0831 205.067 77.7561 205.067 77.3541V76.1391H206.305C206.714 76.1391 207.048 75.8121 207.048 75.4101C207.048 75.0081 206.714 74.6811 206.305 74.6811Z" fill="#FFF3EA"/>
<path d="M166.686 43.085H167.924V44.3C167.924 44.702 168.258 45.029 168.667 45.029C169.076 45.029 169.41 44.702 169.41 44.3V43.085H170.648C171.057 43.085 171.391 42.758 171.391 42.356C171.391 41.954 171.057 41.627 170.648 41.627H169.41V40.412C169.41 40.01 169.076 39.683 168.667 39.683C168.258 39.683 167.924 40.01 167.924 40.412V41.627H166.686C166.277 41.627 165.943 41.954 165.943 42.356C165.943 42.758 166.277 43.085 166.686 43.085Z" fill="#FFF3EA"/>
<path d="M204.324 38.224C204.512 38.224 204.712 38.143 204.847 38.018C204.984 37.876 205.067 37.68 205.067 37.495C205.067 37.31 204.985 37.114 204.852 36.977C204.723 36.851 204.532 36.778 204.328 36.778C204.122 36.778 203.928 36.852 203.8 36.973C203.664 37.114 203.581 37.31 203.581 37.496C203.581 37.682 203.663 37.877 203.791 38.01C203.936 38.143 204.135 38.224 204.324 38.224Z" fill="#FFF3EA"/>
<path d="M211.785 40.865C211.656 40.739 211.464 40.666 211.257 40.666C211.05 40.666 210.858 40.739 210.733 40.861C210.597 41.002 210.514 41.198 210.514 41.384C210.514 41.57 210.596 41.765 210.724 41.898C210.873 42.037 211.063 42.113 211.257 42.113C211.445 42.113 211.645 42.032 211.78 41.907C211.917 41.765 212 41.569 212 41.384C212 41.199 211.918 41.003 211.785 40.865Z" fill="#FFF3EA"/>
<path d="M208.286 30.446C208.479 30.446 208.669 30.37 208.809 30.24C208.946 30.098 209.029 29.902 209.029 29.717C209.029 29.527 208.951 29.341 208.814 29.199C208.685 29.073 208.494 29 208.29 29C208.084 29 207.89 29.074 207.762 29.195C207.626 29.336 207.543 29.532 207.543 29.718C207.543 29.904 207.625 30.099 207.753 30.232C207.898 30.366 208.097 30.446 208.286 30.446Z" fill="#FFF3EA"/>
<path d="M188.119 71.776C187.916 71.776 187.722 71.85 187.596 71.97C187.459 72.112 187.376 72.308 187.376 72.493C187.376 72.678 187.458 72.874 187.586 73.007C187.731 73.142 187.931 73.223 188.119 73.223C188.308 73.223 188.507 73.142 188.647 73.012C188.783 72.878 188.862 72.689 188.862 72.494C188.862 72.299 188.784 72.109 188.649 71.978C188.516 71.85 188.322 71.776 188.119 71.776Z" fill="#FFF3EA"/>
<path d="M160.743 72.748C160.536 72.748 160.344 72.821 160.219 72.943C160.082 73.084 160 73.28 160 73.466C160 73.652 160.082 73.847 160.21 73.98C160.355 74.114 160.554 74.195 160.743 74.195C160.936 74.195 161.126 74.119 161.266 73.989C161.403 73.847 161.486 73.651 161.486 73.466C161.486 73.281 161.404 73.085 161.271 72.948C161.142 72.821 160.95 72.748 160.743 72.748Z" fill="#FFF3EA"/>
<path d="M165.694 79.557C165.488 79.557 165.3 79.627 165.177 79.752C165.032 79.894 164.953 80.078 164.953 80.27C164.953 80.456 165.035 80.651 165.163 80.784C165.307 80.919 165.507 81 165.695 81C165.883 81 166.083 80.919 166.218 80.794C166.355 80.652 166.438 80.456 166.438 80.271C166.438 80.086 166.356 79.89 166.225 79.755C166.095 79.63 165.9 79.557 165.694 79.557Z" fill="#FFF3EA"/>
<path d="M163.714 53.779C163.902 53.779 164.102 53.698 164.237 53.573C164.374 53.431 164.457 53.235 164.457 53.05C164.457 52.865 164.375 52.669 164.242 52.532C164.113 52.406 163.921 52.333 163.714 52.333C163.507 52.333 163.315 52.406 163.19 52.528C163.054 52.669 162.971 52.865 162.971 53.051C162.971 53.237 163.053 53.432 163.181 53.565C163.33 53.702 163.52 53.779 163.714 53.779Z" fill="#FFF3EA"/>
<path d="M206.943 61.082C206.739 61.082 206.548 61.155 206.42 61.281C206.278 61.422 206.196 61.61 206.196 61.799C206.196 61.991 206.275 62.175 206.42 62.317C206.555 62.449 206.749 62.528 206.938 62.528C207.132 62.528 207.322 62.452 207.462 62.322C207.598 62.181 207.681 61.985 207.681 61.799C207.681 61.613 207.599 61.418 207.466 61.281C207.338 61.155 207.147 61.082 206.943 61.082Z" fill="#FFF3EA"/>
<path d="M173.619 32.391C173.807 32.391 174.007 32.31 174.142 32.185C174.279 32.043 174.362 31.847 174.362 31.662C174.362 31.477 174.28 31.281 174.149 31.146C174.016 31.018 173.821 30.945 173.615 30.945C173.411 30.945 173.219 31.018 173.091 31.144C172.957 31.275 172.876 31.469 172.876 31.662C172.876 31.855 172.956 32.048 173.086 32.176C173.231 32.31 173.43 32.391 173.619 32.391Z" fill="#FFF3EA"/>
<path d="M1316.14 291.357L1312.41 277.659L1308.68 291.356C1308.66 291.439 1308.6 291.501 1308.52 291.526L1296.41 295.189L1308.51 298.852C1308.6 298.877 1308.66 298.939 1308.68 299.021L1312.41 312.719L1316.14 299.022C1316.16 298.939 1316.22 298.877 1316.31 298.852L1328.41 295.189L1316.31 291.526C1316.22 291.501 1316.16 291.439 1316.14 291.357Z" fill="#FFF3EA"/>
<path d="M1294.8 308.74C1294.73 308.716 1294.66 308.649 1294.64 308.569L1291.61 297.127L1288.58 308.57C1288.56 308.65 1288.49 308.717 1288.42 308.74L1278.58 311.716L1288.42 314.691C1288.49 314.715 1288.56 314.782 1288.58 314.862L1291.61 326.304L1294.64 314.862C1294.66 314.782 1294.72 314.715 1294.8 314.692L1304.64 311.716L1294.8 308.74Z" fill="#FFF3EA"/>
<path d="M1323.31 321.681H1322.07V320.466C1322.07 320.064 1321.73 319.737 1321.32 319.737C1320.92 319.737 1320.58 320.064 1320.58 320.466V321.681H1319.34C1318.93 321.681 1318.6 322.008 1318.6 322.41C1318.6 322.812 1318.93 323.139 1319.34 323.139H1320.58V324.354C1320.58 324.756 1320.92 325.083 1321.32 325.083C1321.73 325.083 1322.07 324.756 1322.07 324.354V323.139H1323.31C1323.71 323.139 1324.05 322.812 1324.05 322.41C1324.05 322.008 1323.71 321.681 1323.31 321.681Z" fill="#FFF3EA"/>
<path d="M1323.31 321.681H1322.07V320.466C1322.07 320.064 1321.73 319.737 1321.32 319.737C1320.92 319.737 1320.58 320.064 1320.58 320.466V321.681H1319.34C1318.93 321.681 1318.6 322.008 1318.6 322.41C1318.6 322.812 1318.93 323.139 1319.34 323.139H1320.58V324.354C1320.58 324.756 1320.92 325.083 1321.32 325.083C1321.73 325.083 1322.07 324.756 1322.07 324.354V323.139H1323.31C1323.71 323.139 1324.05 322.812 1324.05 322.41C1324.05 322.008 1323.71 321.681 1323.31 321.681Z" fill="#FFF3EA"/>
<path d="M1283.69 290.085H1284.92V291.3C1284.92 291.702 1285.26 292.029 1285.67 292.029C1286.08 292.029 1286.41 291.702 1286.41 291.3V290.085H1287.65C1288.06 290.085 1288.39 289.758 1288.39 289.356C1288.39 288.954 1288.06 288.627 1287.65 288.627H1286.41V287.412C1286.41 287.01 1286.08 286.683 1285.67 286.683C1285.26 286.683 1284.92 287.01 1284.92 287.412V288.627H1283.69C1283.28 288.627 1282.94 288.954 1282.94 289.356C1282.94 289.758 1283.28 290.085 1283.69 290.085Z" fill="#FFF3EA"/>
<path d="M1321.32 285.224C1321.51 285.224 1321.71 285.143 1321.85 285.018C1321.98 284.876 1322.07 284.68 1322.07 284.495C1322.07 284.31 1321.99 284.114 1321.85 283.977C1321.72 283.851 1321.53 283.778 1321.33 283.778C1321.12 283.778 1320.93 283.852 1320.8 283.973C1320.66 284.114 1320.58 284.31 1320.58 284.496C1320.58 284.682 1320.66 284.877 1320.79 285.01C1320.94 285.143 1321.14 285.224 1321.32 285.224Z" fill="#FFF3EA"/>
<path d="M1328.78 287.865C1328.66 287.739 1328.46 287.666 1328.26 287.666C1328.05 287.666 1327.86 287.739 1327.73 287.861C1327.6 288.002 1327.51 288.198 1327.51 288.384C1327.51 288.57 1327.6 288.765 1327.72 288.898C1327.87 289.037 1328.06 289.113 1328.26 289.113C1328.44 289.113 1328.64 289.032 1328.78 288.907C1328.92 288.765 1329 288.569 1329 288.384C1329 288.199 1328.92 288.003 1328.78 287.865Z" fill="#FFF3EA"/>
<path d="M1325.29 277.446C1325.48 277.446 1325.67 277.37 1325.81 277.24C1325.95 277.098 1326.03 276.902 1326.03 276.717C1326.03 276.527 1325.95 276.341 1325.81 276.199C1325.68 276.073 1325.49 276 1325.29 276C1325.08 276 1324.89 276.074 1324.76 276.195C1324.63 276.336 1324.54 276.532 1324.54 276.718C1324.54 276.904 1324.62 277.099 1324.75 277.232C1324.9 277.366 1325.1 277.446 1325.29 277.446Z" fill="#FFF3EA"/>
<path d="M1305.12 318.776C1304.92 318.776 1304.72 318.85 1304.6 318.97C1304.46 319.112 1304.38 319.308 1304.38 319.493C1304.38 319.678 1304.46 319.874 1304.59 320.007C1304.73 320.142 1304.93 320.223 1305.12 320.223C1305.31 320.223 1305.51 320.142 1305.65 320.012C1305.78 319.878 1305.86 319.689 1305.86 319.494C1305.86 319.299 1305.78 319.109 1305.65 318.978C1305.52 318.85 1305.32 318.776 1305.12 318.776Z" fill="#FFF3EA"/>
<path d="M1277.74 319.748C1277.54 319.748 1277.34 319.821 1277.22 319.943C1277.08 320.084 1277 320.28 1277 320.466C1277 320.652 1277.08 320.847 1277.21 320.98C1277.36 321.114 1277.55 321.195 1277.74 321.195C1277.94 321.195 1278.13 321.119 1278.27 320.989C1278.4 320.847 1278.49 320.651 1278.49 320.466C1278.49 320.281 1278.4 320.085 1278.27 319.948C1278.14 319.821 1277.95 319.748 1277.74 319.748Z" fill="#FFF3EA"/>
<path d="M1282.69 326.557C1282.49 326.557 1282.3 326.627 1282.18 326.752C1282.03 326.894 1281.95 327.078 1281.95 327.27C1281.95 327.456 1282.03 327.651 1282.16 327.784C1282.31 327.919 1282.51 328 1282.69 328C1282.88 328 1283.08 327.919 1283.22 327.794C1283.35 327.652 1283.44 327.456 1283.44 327.271C1283.44 327.086 1283.36 326.89 1283.22 326.755C1283.09 326.63 1282.9 326.557 1282.69 326.557Z" fill="#FFF3EA"/>
<path d="M1280.71 300.779C1280.9 300.779 1281.1 300.698 1281.24 300.573C1281.37 300.431 1281.46 300.235 1281.46 300.05C1281.46 299.865 1281.37 299.669 1281.24 299.532C1281.11 299.406 1280.92 299.333 1280.71 299.333C1280.51 299.333 1280.31 299.406 1280.19 299.528C1280.05 299.669 1279.97 299.865 1279.97 300.051C1279.97 300.237 1280.05 300.432 1280.18 300.565C1280.33 300.702 1280.52 300.779 1280.71 300.779Z" fill="#FFF3EA"/>
<path d="M1323.94 308.082C1323.74 308.082 1323.55 308.155 1323.42 308.281C1323.28 308.422 1323.2 308.61 1323.2 308.799C1323.2 308.991 1323.28 309.175 1323.42 309.317C1323.56 309.449 1323.75 309.528 1323.94 309.528C1324.13 309.528 1324.32 309.452 1324.46 309.322C1324.6 309.181 1324.68 308.985 1324.68 308.799C1324.68 308.613 1324.6 308.418 1324.47 308.281C1324.34 308.155 1324.15 308.082 1323.94 308.082Z" fill="#FFF3EA"/>
<path d="M1290.62 279.391C1290.81 279.391 1291.01 279.31 1291.14 279.185C1291.28 279.043 1291.36 278.847 1291.36 278.662C1291.36 278.477 1291.28 278.281 1291.15 278.146C1291.02 278.018 1290.82 277.945 1290.61 277.945C1290.41 277.945 1290.22 278.018 1290.09 278.144C1289.96 278.275 1289.88 278.469 1289.88 278.662C1289.88 278.855 1289.96 279.048 1290.09 279.176C1290.23 279.31 1290.43 279.391 1290.62 279.391Z" fill="#FFF3EA"/>
<path d="M224.705 131.944H223.467V130.729C223.467 130.327 223.133 130 222.724 130C222.315 130 221.981 130.327 221.981 130.729V131.944H220.743C220.334 131.944 220 132.271 220 132.673C220 133.075 220.334 133.402 220.743 133.402H221.981V134.617C221.981 135.019 222.315 135.346 222.724 135.346C223.133 135.346 223.467 135.019 223.467 134.617V133.402H224.705C225.114 133.402 225.448 133.075 225.448 132.673C225.448 132.271 225.114 131.944 224.705 131.944Z" fill="#FFF3EA"/>
<path d="M417.705 400.944H416.467V399.729C416.467 399.327 416.133 399 415.724 399C415.315 399 414.981 399.327 414.981 399.729V400.944H413.743C413.334 400.944 413 401.271 413 401.673C413 402.075 413.334 402.402 413.743 402.402H414.981V403.617C414.981 404.019 415.315 404.346 415.724 404.346C416.133 404.346 416.467 404.019 416.467 403.617V402.402H417.705C418.114 402.402 418.448 402.075 418.448 401.673C418.448 401.271 418.114 400.944 417.705 400.944Z" fill="#FFF3EA"/>
<path d="M385.705 22.944H384.467V21.729C384.467 21.327 384.133 21 383.724 21C383.315 21 382.981 21.327 382.981 21.729V22.944H381.743C381.334 22.944 381 23.271 381 23.673C381 24.075 381.334 24.402 381.743 24.402H382.981V25.617C382.981 26.019 383.315 26.346 383.724 26.346C384.133 26.346 384.467 26.019 384.467 25.617V24.402H385.705C386.114 24.402 386.448 24.075 386.448 23.673C386.448 23.271 386.114 22.944 385.705 22.944Z" fill="#FFF3EA"/>
<path d="M196.705 300.944H195.467V299.729C195.467 299.327 195.133 299 194.724 299C194.315 299 193.981 299.327 193.981 299.729V300.944H192.743C192.334 300.944 192 301.271 192 301.673C192 302.075 192.334 302.402 192.743 302.402H193.981V303.617C193.981 304.019 194.315 304.346 194.724 304.346C195.133 304.346 195.467 304.019 195.467 303.617V302.402H196.705C197.114 302.402 197.448 302.075 197.448 301.673C197.448 301.271 197.114 300.944 196.705 300.944Z" fill="#FFF3EA"/>
<path d="M159.705 139.944H158.467V138.729C158.467 138.327 158.133 138 157.724 138C157.315 138 156.981 138.327 156.981 138.729V139.944H155.743C155.334 139.944 155 140.271 155 140.673C155 141.075 155.334 141.402 155.743 141.402H156.981V142.617C156.981 143.019 157.315 143.346 157.724 143.346C158.133 143.346 158.467 143.019 158.467 142.617V141.402H159.705C160.114 141.402 160.448 141.075 160.448 140.673C160.448 140.271 160.114 139.944 159.705 139.944Z" fill="#FFF3EA"/>
<path d="M289.705 95.944H288.467V94.729C288.467 94.327 288.133 94 287.724 94C287.315 94 286.981 94.327 286.981 94.729V95.944H285.743C285.334 95.944 285 96.271 285 96.673C285 97.075 285.334 97.402 285.743 97.402H286.981V98.617C286.981 99.019 287.315 99.346 287.724 99.346C288.133 99.346 288.467 99.019 288.467 98.617V97.402H289.705C290.114 97.402 290.448 97.075 290.448 96.673C290.448 96.271 290.114 95.944 289.705 95.944Z" fill="#FFF3EA"/>
<path d="M292.705 38.944H291.467V37.729C291.467 37.327 291.133 37 290.724 37C290.315 37 289.981 37.327 289.981 37.729V38.944H288.743C288.334 38.944 288 39.271 288 39.673C288 40.075 288.334 40.402 288.743 40.402H289.981V41.617C289.981 42.019 290.315 42.346 290.724 42.346C291.133 42.346 291.467 42.019 291.467 41.617V40.402H292.705C293.114 40.402 293.448 40.075 293.448 39.673C293.448 39.271 293.114 38.944 292.705 38.944Z" fill="#FFF3EA"/>
<path d="M372.705 136.944H371.467V135.729C371.467 135.327 371.133 135 370.724 135C370.315 135 369.981 135.327 369.981 135.729V136.944H368.743C368.334 136.944 368 137.271 368 137.673C368 138.075 368.334 138.402 368.743 138.402H369.981V139.617C369.981 140.019 370.315 140.346 370.724 140.346C371.133 140.346 371.467 140.019 371.467 139.617V138.402H372.705C373.114 138.402 373.448 138.075 373.448 137.673C373.448 137.271 373.114 136.944 372.705 136.944Z" fill="#FFF3EA"/>
<path d="M266.705 82.944H265.467V81.729C265.467 81.327 265.133 81 264.724 81C264.315 81 263.981 81.327 263.981 81.729V82.944H262.743C262.334 82.944 262 83.271 262 83.673C262 84.075 262.334 84.402 262.743 84.402H263.981V85.617C263.981 86.019 264.315 86.346 264.724 86.346C265.133 86.346 265.467 86.019 265.467 85.617V84.402H266.705C267.114 84.402 267.448 84.075 267.448 83.673C267.448 83.271 267.114 82.944 266.705 82.944Z" fill="#FFF3EA"/>
<path d="M283.139 407.357L279.41 393.659L275.681 407.356C275.658 407.439 275.597 407.501 275.515 407.526L263.412 411.189L275.514 414.852C275.597 414.877 275.658 414.939 275.68 415.021L279.41 428.719L283.139 415.022C283.162 414.939 283.223 414.877 283.305 414.852L295.408 411.189L283.306 407.526C283.222 407.501 283.162 407.439 283.139 407.357Z" fill="#FFF3EA"/>
<path d="M261.804 424.74C261.725 424.716 261.659 424.649 261.639 424.569L258.61 413.127L255.58 424.57C255.56 424.65 255.494 424.717 255.415 424.74L245.583 427.716L255.415 430.691C255.494 430.715 255.56 430.782 255.58 430.862L258.609 442.304L261.638 430.862C261.658 430.782 261.724 430.715 261.803 430.692L271.635 427.716L261.804 424.74Z" fill="#FFF3EA"/>
<path d="M290.305 437.681H289.067V436.466C289.067 436.064 288.733 435.737 288.324 435.737C287.915 435.737 287.581 436.064 287.581 436.466V437.681H286.343C285.934 437.681 285.6 438.008 285.6 438.41C285.6 438.812 285.934 439.139 286.343 439.139H287.581V440.354C287.581 440.756 287.915 441.083 288.324 441.083C288.733 441.083 289.067 440.756 289.067 440.354V439.139H290.305C290.714 439.139 291.048 438.812 291.048 438.41C291.048 438.008 290.714 437.681 290.305 437.681Z" fill="#FFF3EA"/>
<path d="M250.686 406.085H251.924V407.3C251.924 407.702 252.258 408.029 252.667 408.029C253.076 408.029 253.41 407.702 253.41 407.3V406.085H254.648C255.057 406.085 255.391 405.758 255.391 405.356C255.391 404.954 255.057 404.627 254.648 404.627H253.41V403.412C253.41 403.01 253.076 402.683 252.667 402.683C252.258 402.683 251.924 403.01 251.924 403.412V404.627H250.686C250.277 404.627 249.943 404.954 249.943 405.356C249.943 405.758 250.277 406.085 250.686 406.085Z" fill="#FFF3EA"/>
<path d="M288.324 401.224C288.512 401.224 288.712 401.143 288.847 401.018C288.984 400.876 289.067 400.68 289.067 400.495C289.067 400.31 288.985 400.114 288.852 399.977C288.723 399.851 288.532 399.778 288.328 399.778C288.122 399.778 287.928 399.852 287.8 399.973C287.664 400.114 287.581 400.31 287.581 400.496C287.581 400.682 287.663 400.877 287.791 401.01C287.936 401.143 288.135 401.224 288.324 401.224Z" fill="#FFF3EA"/>
<path d="M295.785 403.865C295.656 403.739 295.464 403.666 295.257 403.666C295.05 403.666 294.858 403.739 294.733 403.861C294.597 404.002 294.514 404.198 294.514 404.384C294.514 404.57 294.596 404.765 294.724 404.898C294.873 405.037 295.063 405.113 295.257 405.113C295.445 405.113 295.645 405.032 295.78 404.907C295.917 404.765 296 404.569 296 404.384C296 404.199 295.918 404.003 295.785 403.865Z" fill="#FFF3EA"/>
<path d="M292.286 393.446C292.479 393.446 292.669 393.37 292.809 393.24C292.946 393.098 293.029 392.902 293.029 392.717C293.029 392.527 292.951 392.341 292.814 392.199C292.685 392.073 292.494 392 292.29 392C292.084 392 291.89 392.074 291.762 392.195C291.626 392.336 291.543 392.532 291.543 392.718C291.543 392.904 291.625 393.099 291.753 393.232C291.898 393.366 292.097 393.446 292.286 393.446Z" fill="#FFF3EA"/>
<path d="M272.119 434.776C271.916 434.776 271.722 434.85 271.596 434.97C271.459 435.112 271.376 435.308 271.376 435.493C271.376 435.678 271.458 435.874 271.586 436.007C271.731 436.142 271.931 436.223 272.119 436.223C272.308 436.223 272.507 436.142 272.647 436.012C272.783 435.878 272.862 435.689 272.862 435.494C272.862 435.299 272.784 435.109 272.649 434.978C272.516 434.85 272.322 434.776 272.119 434.776Z" fill="#FFF3EA"/>
<path d="M244.743 435.748C244.536 435.748 244.344 435.821 244.219 435.943C244.082 436.084 244 436.28 244 436.466C244 436.652 244.082 436.847 244.21 436.98C244.355 437.114 244.554 437.195 244.743 437.195C244.936 437.195 245.126 437.119 245.266 436.989C245.403 436.847 245.486 436.651 245.486 436.466C245.486 436.281 245.404 436.085 245.271 435.948C245.142 435.821 244.95 435.748 244.743 435.748Z" fill="#FFF3EA"/>
<path d="M249.694 442.557C249.488 442.557 249.3 442.627 249.177 442.752C249.032 442.894 248.953 443.078 248.953 443.27C248.953 443.456 249.035 443.651 249.163 443.784C249.307 443.919 249.507 444 249.695 444C249.883 444 250.083 443.919 250.218 443.794C250.355 443.652 250.438 443.456 250.438 443.271C250.438 443.086 250.356 442.89 250.225 442.755C250.095 442.63 249.9 442.557 249.694 442.557Z" fill="#FFF3EA"/>
<path d="M247.714 416.779C247.902 416.779 248.102 416.698 248.237 416.573C248.374 416.431 248.457 416.235 248.457 416.05C248.457 415.865 248.375 415.669 248.242 415.532C248.113 415.406 247.921 415.333 247.714 415.333C247.507 415.333 247.315 415.406 247.19 415.528C247.054 415.669 246.971 415.865 246.971 416.051C246.971 416.237 247.053 416.432 247.181 416.565C247.33 416.702 247.52 416.779 247.714 416.779Z" fill="#FFF3EA"/>
<path d="M290.943 424.082C290.739 424.082 290.548 424.155 290.42 424.281C290.278 424.422 290.196 424.61 290.196 424.799C290.196 424.991 290.275 425.175 290.42 425.317C290.555 425.449 290.749 425.528 290.938 425.528C291.132 425.528 291.322 425.452 291.462 425.322C291.598 425.181 291.681 424.985 291.681 424.799C291.681 424.613 291.599 424.418 291.466 424.281C291.338 424.155 291.147 424.082 290.943 424.082Z" fill="#FFF3EA"/>
<path d="M257.619 395.391C257.807 395.391 258.007 395.31 258.142 395.185C258.279 395.043 258.362 394.847 258.362 394.662C258.362 394.477 258.28 394.281 258.149 394.146C258.016 394.018 257.821 393.945 257.615 393.945C257.411 393.945 257.219 394.018 257.091 394.144C256.957 394.275 256.876 394.469 256.876 394.662C256.876 394.855 256.956 395.048 257.086 395.176C257.231 395.31 257.43 395.391 257.619 395.391Z" fill="#FFF3EA"/>
<path d="M391.139 73.357L387.41 59.659L383.681 73.356C383.658 73.439 383.597 73.501 383.515 73.526L371.412 77.189L383.514 80.852C383.597 80.877 383.658 80.939 383.68 81.021L387.41 94.719L391.139 81.022C391.162 80.939 391.223 80.877 391.305 80.852L403.408 77.189L391.306 73.526C391.222 73.501 391.162 73.439 391.139 73.357Z" fill="#FFF3EA"/>
<path d="M369.804 90.74C369.725 90.716 369.659 90.649 369.639 90.569L366.61 79.127L363.58 90.57C363.56 90.65 363.494 90.717 363.415 90.74L353.583 93.716L363.415 96.691C363.494 96.715 363.56 96.782 363.58 96.862L366.609 108.304L369.638 96.862C369.658 96.782 369.724 96.715 369.803 96.692L379.635 93.716L369.804 90.74Z" fill="#FFF3EA"/>
<path d="M398.305 103.681H397.067V102.466C397.067 102.064 396.733 101.737 396.324 101.737C395.915 101.737 395.581 102.064 395.581 102.466V103.681H394.343C393.934 103.681 393.6 104.008 393.6 104.41C393.6 104.812 393.934 105.139 394.343 105.139H395.581V106.354C395.581 106.756 395.915 107.083 396.324 107.083C396.733 107.083 397.067 106.756 397.067 106.354V105.139H398.305C398.714 105.139 399.048 104.812 399.048 104.41C399.048 104.008 398.714 103.681 398.305 103.681Z" fill="#FFF3EA"/>
<path d="M358.686 72.085H359.924V73.3C359.924 73.702 360.258 74.029 360.667 74.029C361.076 74.029 361.41 73.702 361.41 73.3V72.085H362.648C363.057 72.085 363.391 71.758 363.391 71.356C363.391 70.954 363.057 70.627 362.648 70.627H361.41V69.412C361.41 69.01 361.076 68.683 360.667 68.683C360.258 68.683 359.924 69.01 359.924 69.412V70.627H358.686C358.277 70.627 357.943 70.954 357.943 71.356C357.943 71.758 358.277 72.085 358.686 72.085Z" fill="#FFF3EA"/>
<path d="M396.324 67.224C396.512 67.224 396.712 67.143 396.847 67.018C396.984 66.876 397.067 66.68 397.067 66.495C397.067 66.31 396.985 66.114 396.852 65.977C396.723 65.851 396.532 65.778 396.328 65.778C396.122 65.778 395.928 65.852 395.8 65.973C395.664 66.114 395.581 66.31 395.581 66.496C395.581 66.682 395.663 66.877 395.791 67.01C395.936 67.143 396.135 67.224 396.324 67.224Z" fill="#FFF3EA"/>
<path d="M403.785 69.865C403.656 69.739 403.464 69.666 403.257 69.666C403.05 69.666 402.858 69.739 402.733 69.861C402.597 70.002 402.514 70.198 402.514 70.384C402.514 70.57 402.596 70.765 402.724 70.898C402.873 71.037 403.063 71.113 403.257 71.113C403.445 71.113 403.645 71.032 403.78 70.907C403.917 70.765 404 70.569 404 70.384C404 70.199 403.918 70.003 403.785 69.865Z" fill="#FFF3EA"/>
<path d="M400.286 59.446C400.479 59.446 400.669 59.37 400.809 59.24C400.946 59.098 401.029 58.902 401.029 58.717C401.029 58.527 400.951 58.341 400.814 58.199C400.685 58.073 400.494 58 400.29 58C400.084 58 399.89 58.074 399.762 58.195C399.626 58.336 399.543 58.532 399.543 58.718C399.543 58.904 399.625 59.099 399.753 59.232C399.898 59.366 400.097 59.446 400.286 59.446Z" fill="#FFF3EA"/>
<path d="M380.119 100.776C379.916 100.776 379.722 100.85 379.596 100.97C379.459 101.112 379.376 101.308 379.376 101.493C379.376 101.678 379.458 101.874 379.586 102.007C379.731 102.142 379.931 102.223 380.119 102.223C380.308 102.223 380.507 102.142 380.647 102.012C380.783 101.878 380.862 101.689 380.862 101.494C380.862 101.299 380.784 101.109 380.649 100.978C380.516 100.85 380.322 100.776 380.119 100.776Z" fill="#FFF3EA"/>
<path d="M352.743 101.748C352.536 101.748 352.344 101.821 352.219 101.943C352.082 102.084 352 102.28 352 102.466C352 102.652 352.082 102.847 352.21 102.98C352.355 103.114 352.554 103.195 352.743 103.195C352.936 103.195 353.126 103.119 353.266 102.989C353.403 102.847 353.486 102.651 353.486 102.466C353.486 102.281 353.404 102.085 353.271 101.948C353.142 101.821 352.95 101.748 352.743 101.748Z" fill="#FFF3EA"/>
<path d="M357.694 108.557C357.488 108.557 357.3 108.627 357.177 108.752C357.032 108.894 356.953 109.078 356.953 109.27C356.953 109.456 357.035 109.651 357.163 109.784C357.307 109.919 357.507 110 357.695 110C357.883 110 358.083 109.919 358.218 109.794C358.355 109.652 358.438 109.456 358.438 109.271C358.438 109.086 358.356 108.89 358.225 108.755C358.095 108.63 357.9 108.557 357.694 108.557Z" fill="#FFF3EA"/>
<path d="M355.714 82.779C355.902 82.779 356.102 82.698 356.237 82.573C356.374 82.431 356.457 82.235 356.457 82.05C356.457 81.865 356.375 81.669 356.242 81.532C356.113 81.406 355.921 81.333 355.714 81.333C355.507 81.333 355.315 81.406 355.19 81.528C355.054 81.669 354.971 81.865 354.971 82.051C354.971 82.237 355.053 82.432 355.181 82.565C355.33 82.702 355.52 82.779 355.714 82.779Z" fill="#FFF3EA"/>
<path d="M398.943 90.082C398.739 90.082 398.548 90.155 398.42 90.281C398.278 90.422 398.196 90.61 398.196 90.799C398.196 90.991 398.275 91.175 398.42 91.317C398.555 91.449 398.749 91.528 398.938 91.528C399.132 91.528 399.322 91.452 399.462 91.322C399.598 91.181 399.681 90.985 399.681 90.799C399.681 90.613 399.599 90.418 399.466 90.281C399.338 90.155 399.147 90.082 398.943 90.082Z" fill="#FFF3EA"/>
<path d="M365.619 61.391C365.807 61.391 366.007 61.31 366.142 61.185C366.279 61.043 366.362 60.847 366.362 60.662C366.362 60.477 366.28 60.281 366.149 60.146C366.016 60.018 365.821 59.945 365.615 59.945C365.411 59.945 365.219 60.018 365.091 60.144C364.957 60.275 364.876 60.469 364.876 60.662C364.876 60.855 364.956 61.048 365.086 61.176C365.231 61.31 365.43 61.391 365.619 61.391Z" fill="#FFF3EA"/>
<path d="M1028.14 384.357L1024.41 370.659L1020.68 384.356C1020.66 384.439 1020.6 384.501 1020.51 384.526L1008.41 388.189L1020.51 391.852C1020.6 391.877 1020.66 391.939 1020.68 392.021L1024.41 405.719L1028.14 392.022C1028.16 391.939 1028.22 391.877 1028.3 391.852L1040.41 388.189L1028.31 384.526C1028.22 384.501 1028.16 384.439 1028.14 384.357Z" fill="#FFF3EA"/>
<path d="M1006.8 401.74C1006.73 401.716 1006.66 401.649 1006.64 401.569L1003.61 390.127L1000.58 401.57C1000.56 401.65 1000.49 401.717 1000.42 401.74L990.583 404.716L1000.42 407.691C1000.49 407.715 1000.56 407.782 1000.58 407.862L1003.61 419.304L1006.64 407.862C1006.66 407.782 1006.72 407.715 1006.8 407.692L1016.64 404.716L1006.8 401.74Z" fill="#FFF3EA"/>
<path d="M1035.3 414.681H1034.07V413.466C1034.07 413.064 1033.73 412.737 1033.32 412.737C1032.91 412.737 1032.58 413.064 1032.58 413.466V414.681H1031.34C1030.93 414.681 1030.6 415.008 1030.6 415.41C1030.6 415.812 1030.93 416.139 1031.34 416.139H1032.58V417.354C1032.58 417.756 1032.91 418.083 1033.32 418.083C1033.73 418.083 1034.07 417.756 1034.07 417.354V416.139H1035.3C1035.71 416.139 1036.05 415.812 1036.05 415.41C1036.05 415.008 1035.71 414.681 1035.3 414.681Z" fill="#FFF3EA"/>
<path d="M995.686 383.085H996.924V384.3C996.924 384.702 997.258 385.029 997.667 385.029C998.076 385.029 998.41 384.702 998.41 384.3V383.085H999.648C1000.06 383.085 1000.39 382.758 1000.39 382.356C1000.39 381.954 1000.06 381.627 999.648 381.627H998.41V380.412C998.41 380.01 998.076 379.683 997.667 379.683C997.258 379.683 996.924 380.01 996.924 380.412V381.627H995.686C995.277 381.627 994.943 381.954 994.943 382.356C994.943 382.758 995.277 383.085 995.686 383.085Z" fill="#FFF3EA"/>
<path d="M1033.32 378.224C1033.51 378.224 1033.71 378.143 1033.85 378.018C1033.98 377.876 1034.07 377.68 1034.07 377.495C1034.07 377.31 1033.99 377.114 1033.85 376.977C1033.72 376.851 1033.53 376.778 1033.33 376.778C1033.12 376.778 1032.93 376.852 1032.8 376.973C1032.66 377.114 1032.58 377.31 1032.58 377.496C1032.58 377.682 1032.66 377.877 1032.79 378.01C1032.94 378.143 1033.14 378.224 1033.32 378.224Z" fill="#FFF3EA"/>
<path d="M1040.79 380.865C1040.66 380.739 1040.46 380.666 1040.26 380.666C1040.05 380.666 1039.86 380.739 1039.73 380.861C1039.6 381.002 1039.51 381.198 1039.51 381.384C1039.51 381.57 1039.6 381.765 1039.72 381.898C1039.87 382.037 1040.06 382.113 1040.26 382.113C1040.45 382.113 1040.65 382.032 1040.78 381.907C1040.92 381.765 1041 381.569 1041 381.384C1041 381.199 1040.92 381.003 1040.79 380.865Z" fill="#FFF3EA"/>
<path d="M1037.29 370.446C1037.48 370.446 1037.67 370.37 1037.81 370.24C1037.95 370.098 1038.03 369.902 1038.03 369.717C1038.03 369.527 1037.95 369.341 1037.81 369.199C1037.68 369.073 1037.49 369 1037.29 369C1037.08 369 1036.89 369.074 1036.76 369.195C1036.63 369.336 1036.54 369.532 1036.54 369.718C1036.54 369.904 1036.62 370.099 1036.75 370.232C1036.9 370.366 1037.1 370.446 1037.29 370.446Z" fill="#FFF3EA"/>
<path d="M1017.12 411.776C1016.92 411.776 1016.72 411.85 1016.6 411.97C1016.46 412.112 1016.38 412.308 1016.38 412.493C1016.38 412.678 1016.46 412.874 1016.59 413.007C1016.73 413.142 1016.93 413.223 1017.12 413.223C1017.31 413.223 1017.51 413.142 1017.65 413.012C1017.78 412.878 1017.86 412.689 1017.86 412.494C1017.86 412.299 1017.78 412.109 1017.65 411.978C1017.52 411.85 1017.32 411.776 1017.12 411.776Z" fill="#FFF3EA"/>
<path d="M989.743 412.748C989.536 412.748 989.344 412.821 989.219 412.943C989.082 413.084 989 413.28 989 413.466C989 413.652 989.082 413.847 989.21 413.98C989.355 414.114 989.554 414.195 989.743 414.195C989.936 414.195 990.126 414.119 990.266 413.989C990.403 413.847 990.486 413.651 990.486 413.466C990.486 413.281 990.404 413.085 990.271 412.948C990.142 412.821 989.95 412.748 989.743 412.748Z" fill="#FFF3EA"/>
<path d="M994.694 419.557C994.488 419.557 994.3 419.627 994.177 419.752C994.032 419.894 993.953 420.078 993.953 420.27C993.953 420.456 994.035 420.651 994.163 420.784C994.307 420.919 994.507 421 994.695 421C994.883 421 995.083 420.919 995.218 420.794C995.355 420.652 995.438 420.456 995.438 420.271C995.438 420.086 995.356 419.89 995.225 419.755C995.095 419.63 994.9 419.557 994.694 419.557Z" fill="#FFF3EA"/>
<path d="M992.714 393.779C992.902 393.779 993.102 393.698 993.237 393.573C993.374 393.431 993.457 393.235 993.457 393.05C993.457 392.865 993.375 392.669 993.242 392.532C993.113 392.406 992.921 392.333 992.714 392.333C992.507 392.333 992.315 392.406 992.19 392.528C992.054 392.669 991.971 392.865 991.971 393.051C991.971 393.237 992.053 393.432 992.181 393.565C992.33 393.702 992.52 393.779 992.714 393.779Z" fill="#FFF3EA"/>
<path d="M1035.94 401.082C1035.74 401.082 1035.55 401.155 1035.42 401.281C1035.28 401.422 1035.2 401.61 1035.2 401.799C1035.2 401.991 1035.28 402.175 1035.42 402.317C1035.56 402.449 1035.75 402.528 1035.94 402.528C1036.13 402.528 1036.32 402.452 1036.46 402.322C1036.6 402.181 1036.68 401.985 1036.68 401.799C1036.68 401.613 1036.6 401.418 1036.47 401.281C1036.34 401.155 1036.15 401.082 1035.94 401.082Z" fill="#FFF3EA"/>
<path d="M1002.62 372.391C1002.81 372.391 1003.01 372.31 1003.14 372.185C1003.28 372.043 1003.36 371.847 1003.36 371.662C1003.36 371.477 1003.28 371.281 1003.15 371.146C1003.02 371.018 1002.82 370.945 1002.61 370.945C1002.41 370.945 1002.22 371.018 1002.09 371.144C1001.96 371.275 1001.88 371.469 1001.88 371.662C1001.88 371.855 1001.96 372.048 1002.09 372.176C1002.23 372.31 1002.43 372.391 1002.62 372.391Z" fill="#FFF3EA"/>
<path d="M1192.14 122.357L1188.41 108.659L1184.68 122.356C1184.66 122.439 1184.6 122.501 1184.52 122.526L1172.41 126.189L1184.51 129.852C1184.6 129.877 1184.66 129.939 1184.68 130.021L1188.41 143.719L1192.14 130.022C1192.16 129.939 1192.22 129.877 1192.31 129.852L1204.41 126.189L1192.31 122.526C1192.22 122.501 1192.16 122.439 1192.14 122.357Z" fill="#FFF3EA"/>
<path d="M1170.8 139.74C1170.73 139.716 1170.66 139.649 1170.64 139.569L1167.61 128.127L1164.58 139.57C1164.56 139.65 1164.49 139.717 1164.42 139.74L1154.58 142.716L1164.42 145.691C1164.49 145.715 1164.56 145.782 1164.58 145.862L1167.61 157.304L1170.64 145.862C1170.66 145.782 1170.72 145.715 1170.8 145.692L1180.64 142.716L1170.8 139.74Z" fill="#FFF3EA"/>
<path d="M1199.31 152.681H1198.07V151.466C1198.07 151.064 1197.73 150.737 1197.32 150.737C1196.92 150.737 1196.58 151.064 1196.58 151.466V152.681H1195.34C1194.93 152.681 1194.6 153.008 1194.6 153.41C1194.6 153.812 1194.93 154.139 1195.34 154.139H1196.58V155.354C1196.58 155.756 1196.92 156.083 1197.32 156.083C1197.73 156.083 1198.07 155.756 1198.07 155.354V154.139H1199.31C1199.71 154.139 1200.05 153.812 1200.05 153.41C1200.05 153.008 1199.71 152.681 1199.31 152.681Z" fill="#FFF3EA"/>
<path d="M1159.69 121.085H1160.92V122.3C1160.92 122.702 1161.26 123.029 1161.67 123.029C1162.08 123.029 1162.41 122.702 1162.41 122.3V121.085H1163.65C1164.06 121.085 1164.39 120.758 1164.39 120.356C1164.39 119.954 1164.06 119.627 1163.65 119.627H1162.41V118.412C1162.41 118.01 1162.08 117.683 1161.67 117.683C1161.26 117.683 1160.92 118.01 1160.92 118.412V119.627H1159.69C1159.28 119.627 1158.94 119.954 1158.94 120.356C1158.94 120.758 1159.28 121.085 1159.69 121.085Z" fill="#FFF3EA"/>
<path d="M1197.32 116.224C1197.51 116.224 1197.71 116.143 1197.85 116.018C1197.98 115.876 1198.07 115.68 1198.07 115.495C1198.07 115.31 1197.99 115.114 1197.85 114.977C1197.72 114.851 1197.53 114.778 1197.33 114.778C1197.12 114.778 1196.93 114.852 1196.8 114.973C1196.66 115.114 1196.58 115.31 1196.58 115.496C1196.58 115.682 1196.66 115.877 1196.79 116.01C1196.94 116.143 1197.14 116.224 1197.32 116.224Z" fill="#FFF3EA"/>
<path d="M1204.78 118.865C1204.66 118.739 1204.46 118.666 1204.26 118.666C1204.05 118.666 1203.86 118.739 1203.73 118.861C1203.6 119.002 1203.51 119.198 1203.51 119.384C1203.51 119.57 1203.6 119.765 1203.72 119.898C1203.87 120.037 1204.06 120.113 1204.26 120.113C1204.44 120.113 1204.64 120.032 1204.78 119.907C1204.92 119.765 1205 119.569 1205 119.384C1205 119.199 1204.92 119.003 1204.78 118.865Z" fill="#FFF3EA"/>
<path d="M1201.29 108.446C1201.48 108.446 1201.67 108.37 1201.81 108.24C1201.95 108.098 1202.03 107.902 1202.03 107.717C1202.03 107.527 1201.95 107.341 1201.81 107.199C1201.68 107.073 1201.49 107 1201.29 107C1201.08 107 1200.89 107.074 1200.76 107.195C1200.63 107.336 1200.54 107.532 1200.54 107.718C1200.54 107.904 1200.62 108.099 1200.75 108.232C1200.9 108.366 1201.1 108.446 1201.29 108.446Z" fill="#FFF3EA"/>
<path d="M1181.12 149.776C1180.92 149.776 1180.72 149.85 1180.6 149.97C1180.46 150.112 1180.38 150.308 1180.38 150.493C1180.38 150.678 1180.46 150.874 1180.59 151.007C1180.73 151.142 1180.93 151.223 1181.12 151.223C1181.31 151.223 1181.51 151.142 1181.65 151.012C1181.78 150.878 1181.86 150.689 1181.86 150.494C1181.86 150.299 1181.78 150.109 1181.65 149.978C1181.52 149.85 1181.32 149.776 1181.12 149.776Z" fill="#FFF3EA"/>
<path d="M1153.74 150.748C1153.54 150.748 1153.34 150.821 1153.22 150.943C1153.08 151.084 1153 151.28 1153 151.466C1153 151.652 1153.08 151.847 1153.21 151.98C1153.36 152.114 1153.55 152.195 1153.74 152.195C1153.94 152.195 1154.13 152.119 1154.27 151.989C1154.4 151.847 1154.49 151.651 1154.49 151.466C1154.49 151.281 1154.4 151.085 1154.27 150.948C1154.14 150.821 1153.95 150.748 1153.74 150.748Z" fill="#FFF3EA"/>
<path d="M1158.69 157.557C1158.49 157.557 1158.3 157.627 1158.18 157.752C1158.03 157.894 1157.95 158.078 1157.95 158.27C1157.95 158.456 1158.03 158.651 1158.16 158.784C1158.31 158.919 1158.51 159 1158.69 159C1158.88 159 1159.08 158.919 1159.22 158.794C1159.35 158.652 1159.44 158.456 1159.44 158.271C1159.44 158.086 1159.36 157.89 1159.22 157.755C1159.09 157.63 1158.9 157.557 1158.69 157.557Z" fill="#FFF3EA"/>
<path d="M1156.71 131.779C1156.9 131.779 1157.1 131.698 1157.24 131.573C1157.37 131.431 1157.46 131.235 1157.46 131.05C1157.46 130.865 1157.37 130.669 1157.24 130.532C1157.11 130.406 1156.92 130.333 1156.71 130.333C1156.51 130.333 1156.31 130.406 1156.19 130.528C1156.05 130.669 1155.97 130.865 1155.97 131.051C1155.97 131.237 1156.05 131.432 1156.18 131.565C1156.33 131.702 1156.52 131.779 1156.71 131.779Z" fill="#FFF3EA"/>
<path d="M1199.94 139.082C1199.74 139.082 1199.55 139.155 1199.42 139.281C1199.28 139.422 1199.2 139.61 1199.2 139.799C1199.2 139.991 1199.28 140.175 1199.42 140.317C1199.56 140.449 1199.75 140.528 1199.94 140.528C1200.13 140.528 1200.32 140.452 1200.46 140.322C1200.6 140.181 1200.68 139.985 1200.68 139.799C1200.68 139.613 1200.6 139.418 1200.47 139.281C1200.34 139.155 1200.15 139.082 1199.94 139.082Z" fill="#FFF3EA"/>
<path d="M1166.62 110.391C1166.81 110.391 1167.01 110.31 1167.14 110.185C1167.28 110.043 1167.36 109.847 1167.36 109.662C1167.36 109.477 1167.28 109.281 1167.15 109.146C1167.02 109.018 1166.82 108.945 1166.61 108.945C1166.41 108.945 1166.22 109.018 1166.09 109.144C1165.96 109.275 1165.88 109.469 1165.88 109.662C1165.88 109.855 1165.96 110.048 1166.09 110.176C1166.23 110.31 1166.43 110.391 1166.62 110.391Z" fill="#FFF3EA"/>
<path d="M1217.97 289.875C1217.97 289.865 1217.95 289.858 1217.94 289.848C1213.17 285.593 1206.88 283 1200 283C1185.11 283 1173 295.112 1173 310C1173 324.888 1185.11 337 1200 337C1214.89 337 1227 324.888 1227 310C1227 302.01 1223.51 294.823 1217.97 289.875ZM1212.66 288.457C1213.78 289.119 1214.85 289.862 1215.85 290.684C1215.06 291.381 1213.86 291.363 1213.11 290.615C1212.53 290.035 1212.38 289.177 1212.66 288.457ZM1189.34 288.66C1189.34 289.192 1189.14 289.693 1188.75 290.073C1188 290.827 1186.68 290.826 1185.93 290.073C1185.79 289.931 1185.67 289.771 1185.58 289.6C1186.66 288.832 1187.81 288.145 1189.01 287.554C1189.23 287.878 1189.34 288.26 1189.34 288.66ZM1208.55 333.494C1208.55 332.848 1208.78 332.213 1209.26 331.737C1210.17 330.823 1211.62 330.778 1212.6 331.579C1211.32 332.332 1209.96 332.977 1208.55 333.494ZM1214.33 330.466C1214.29 330.419 1214.25 330.368 1214.21 330.323C1212.45 328.567 1209.6 328.569 1207.84 330.323C1206.83 331.335 1206.39 332.742 1206.58 334.115C1204.48 334.688 1202.28 335 1200 335C1186.22 335 1175 323.785 1175 310C1175 302.302 1178.5 295.409 1183.99 290.819C1184.14 291.056 1184.31 291.283 1184.51 291.486C1185.27 292.241 1186.27 292.657 1187.34 292.657C1188.41 292.657 1189.41 292.241 1190.16 291.489C1190.93 290.734 1191.34 289.729 1191.34 288.659C1191.34 287.976 1191.16 287.327 1190.84 286.746C1193.68 285.624 1196.77 285 1200 285C1203.91 285 1207.61 285.904 1210.91 287.512C1210.23 288.99 1210.49 290.811 1211.69 292.027C1212.47 292.805 1213.49 293.194 1214.52 293.194C1215.54 293.194 1216.57 292.806 1217.35 292.029C1222.06 296.579 1225 302.951 1225 310C1225 318.456 1220.78 325.94 1214.33 330.466Z" fill="#FFF3EA"/>
<path d="M1219.02 305.113C1220.58 303.553 1220.58 301.015 1219.02 299.456C1217.51 297.943 1214.88 297.944 1213.37 299.456C1211.81 301.015 1211.81 303.553 1213.37 305.113C1214.12 305.868 1215.13 306.284 1216.2 306.284C1217.26 306.284 1218.27 305.868 1219.02 305.113ZM1214.78 303.699C1214 302.919 1214 301.65 1214.78 300.87C1215.16 300.492 1215.66 300.284 1216.2 300.284C1216.73 300.284 1217.23 300.492 1217.61 300.87C1218.39 301.65 1218.39 302.919 1217.61 303.699C1216.85 304.454 1215.54 304.453 1214.78 303.699Z" fill="#FFF3EA"/>
<path d="M1219.65 316.83C1218.51 315.697 1216.54 315.698 1215.4 316.829C1214.84 317.395 1214.52 318.149 1214.52 318.951C1214.52 319.752 1214.84 320.506 1215.4 321.072C1215.97 321.638 1216.72 321.951 1217.52 321.951C1218.33 321.951 1219.08 321.638 1219.65 321.072C1220.21 320.506 1220.52 319.752 1220.52 318.951C1220.52 318.149 1220.21 317.396 1219.65 316.83ZM1218.23 319.658C1217.85 320.037 1217.19 320.037 1216.82 319.658C1216.63 319.469 1216.52 319.218 1216.52 318.951C1216.52 318.683 1216.63 318.433 1216.82 318.244C1217 318.055 1217.25 317.951 1217.52 317.951C1217.79 317.951 1218.04 318.055 1218.23 318.245C1218.42 318.433 1218.52 318.683 1218.52 318.951C1218.52 319.218 1218.42 319.469 1218.23 319.658Z" fill="#FFF3EA"/>
<path d="M1197.51 321.784C1196.31 321.784 1195.18 322.252 1194.33 323.102C1193.48 323.952 1193.01 325.081 1193.01 326.284C1193.01 327.487 1193.48 328.616 1194.33 329.466C1195.18 330.317 1196.31 330.784 1197.51 330.784C1198.71 330.784 1199.84 330.316 1200.69 329.466C1201.54 328.616 1202.01 327.487 1202.01 326.284C1202.01 325.081 1201.54 323.952 1200.69 323.102C1199.84 322.252 1198.71 321.784 1197.51 321.784ZM1199.28 328.052C1198.33 328.997 1196.69 328.997 1195.74 328.052C1195.27 327.58 1195.01 326.952 1195.01 326.284C1195.01 325.616 1195.27 324.988 1195.74 324.516C1196.22 324.043 1196.84 323.784 1197.51 323.784C1198.18 323.784 1198.81 324.044 1199.28 324.516C1199.75 324.988 1200.01 325.616 1200.01 326.284C1200.01 326.952 1199.75 327.58 1199.28 328.052Z" fill="#FFF3EA"/>
<path d="M1199.27 308.81C1198.61 309.471 1198.25 310.35 1198.25 311.285C1198.25 312.221 1198.61 313.099 1199.27 313.76C1199.94 314.421 1200.81 314.785 1201.75 314.785C1202.69 314.785 1203.56 314.421 1204.22 313.76C1204.89 313.1 1205.25 312.221 1205.25 311.285C1205.25 310.35 1204.89 309.471 1204.22 308.81C1202.9 307.487 1200.6 307.487 1199.27 308.81ZM1202.81 312.345C1202.25 312.911 1201.26 312.911 1200.69 312.345C1200.41 312.062 1200.25 311.685 1200.25 311.284C1200.25 310.883 1200.41 310.507 1200.69 310.223C1200.97 309.94 1201.35 309.784 1201.75 309.784C1202.15 309.784 1202.53 309.94 1202.81 310.224C1203.1 310.507 1203.25 310.884 1203.25 311.284C1203.25 311.684 1203.1 312.062 1202.81 312.345Z" fill="#FFF3EA"/>
<path d="M1183.22 315.83C1182.66 316.396 1182.34 317.149 1182.34 317.951C1182.34 318.752 1182.66 319.506 1183.22 320.072C1183.79 320.638 1184.54 320.951 1185.34 320.951C1186.14 320.951 1186.9 320.638 1187.46 320.072C1188.03 319.506 1188.34 318.752 1188.34 317.951C1188.34 317.149 1188.03 316.395 1187.46 315.83C1186.33 314.696 1184.36 314.698 1183.22 315.83ZM1186.05 318.658C1185.67 319.036 1185.01 319.034 1184.64 318.658C1184.45 318.47 1184.34 318.218 1184.34 317.951C1184.34 317.683 1184.45 317.432 1184.64 317.244C1184.82 317.056 1185.08 316.951 1185.34 316.951C1185.61 316.951 1185.86 317.055 1186.05 317.245C1186.24 317.433 1186.34 317.683 1186.34 317.951C1186.34 318.218 1186.24 318.469 1186.05 318.658Z" fill="#FFF3EA"/>
<path d="M1186.17 305.112C1186.93 304.357 1187.34 303.352 1187.34 302.283C1187.34 301.214 1186.93 300.21 1186.17 299.455C1184.66 297.943 1182.03 297.943 1180.51 299.455C1178.95 301.014 1178.95 303.552 1180.51 305.112C1181.27 305.867 1182.27 306.283 1183.34 306.283C1184.41 306.283 1185.42 305.867 1186.17 305.112ZM1181.93 303.698C1181.15 302.918 1181.15 301.649 1181.93 300.869C1182.31 300.491 1182.81 300.283 1183.34 300.283C1183.88 300.283 1184.38 300.491 1184.76 300.869C1185.14 301.247 1185.34 301.749 1185.34 302.283C1185.34 302.817 1185.14 303.32 1184.76 303.698C1184 304.453 1182.68 304.453 1181.93 303.698Z" fill="#FFF3EA"/>
<path d="M1200.21 296.194C1201.01 296.194 1201.76 295.882 1202.33 295.315C1203.5 294.145 1203.5 292.242 1202.33 291.072C1201.2 289.94 1199.22 289.94 1198.09 291.072C1197.52 291.639 1197.21 292.392 1197.21 293.194C1197.21 293.995 1197.52 294.748 1198.09 295.315C1198.65 295.882 1199.41 296.194 1200.21 296.194ZM1199.5 292.486C1199.69 292.298 1199.94 292.194 1200.21 292.194C1200.48 292.194 1200.73 292.298 1200.92 292.486C1201.31 292.876 1201.31 293.51 1200.92 293.901C1200.54 294.279 1199.88 294.279 1199.5 293.901C1199.11 293.511 1199.11 292.876 1199.5 292.486Z" fill="#FFF3EA"/>
<path d="M1223.79 324.79C1223.61 324.979 1223.5 325.24 1223.5 325.5C1223.5 325.76 1223.61 326.02 1223.79 326.2C1223.98 326.389 1224.23 326.5 1224.5 326.5C1224.76 326.5 1225.02 326.39 1225.21 326.21C1225.39 326.02 1225.5 325.76 1225.5 325.5C1225.5 325.24 1225.39 324.979 1225.21 324.79C1224.83 324.42 1224.16 324.42 1223.79 324.79Z" fill="#FFF3EA"/>
<path d="M1222.79 331.79C1222.61 331.979 1222.5 332.24 1222.5 332.5C1222.5 332.76 1222.61 333.02 1222.79 333.21C1222.98 333.39 1223.24 333.5 1223.5 333.5C1223.76 333.5 1224.02 333.39 1224.21 333.21C1224.39 333.02 1224.5 332.76 1224.5 332.5C1224.5 332.24 1224.39 331.979 1224.21 331.79C1223.83 331.42 1223.16 331.42 1222.79 331.79Z" fill="#FFF3EA"/>
<path d="M1215.79 332.79C1215.61 332.979 1215.5 333.24 1215.5 333.5C1215.5 333.76 1215.61 334.02 1215.79 334.21C1215.98 334.39 1216.24 334.5 1216.5 334.5C1216.76 334.5 1217.02 334.39 1217.21 334.21C1217.39 334.02 1217.5 333.76 1217.5 333.5C1217.5 333.24 1217.39 332.979 1217.21 332.79C1216.84 332.42 1216.17 332.42 1215.79 332.79Z" fill="#FFF3EA"/>
<path d="M1174.5 289.5C1174.76 289.5 1175.02 289.39 1175.21 289.21C1175.39 289.02 1175.5 288.76 1175.5 288.5C1175.5 288.24 1175.39 287.98 1175.21 287.79C1174.84 287.42 1174.17 287.42 1173.79 287.79C1173.61 287.98 1173.5 288.24 1173.5 288.5C1173.5 288.76 1173.61 289.02 1173.79 289.21C1173.98 289.39 1174.23 289.5 1174.5 289.5Z" fill="#FFF3EA"/>
<path d="M1179.5 285.5C1179.76 285.5 1180.02 285.39 1180.21 285.21C1180.39 285.02 1180.5 284.76 1180.5 284.5C1180.5 284.24 1180.39 283.98 1180.21 283.79C1179.83 283.42 1179.16 283.42 1178.79 283.79C1178.61 283.98 1178.5 284.24 1178.5 284.5C1178.5 284.76 1178.61 285.02 1178.79 285.21C1178.98 285.39 1179.24 285.5 1179.5 285.5Z" fill="#FFF3EA"/>
<path d="M689.333 42.8333C683.613 42.8333 678.852 46.9742 677.864 52.4133C677.652 52.0983 677.453 51.7758 677.278 51.4392C677.065 51.0308 676.562 50.8725 676.154 51.0825C675.746 51.2942 675.586 51.7975 675.797 52.2058C676.026 52.6475 676.289 53.0683 676.572 53.4767C671.978 52.575 668.5 48.5208 668.5 43.6667C668.5 38.1525 672.986 33.6667 678.5 33.6667C678.96 33.6667 679.333 33.2933 679.333 32.8333C679.333 32.3733 678.96 32 678.5 32C672.067 32 666.833 37.2333 666.833 43.6667C666.833 49.3867 670.974 54.1483 676.413 55.1358C676.098 55.3483 675.776 55.5483 675.438 55.7233C675.03 55.935 674.87 56.4375 675.082 56.8467C675.231 57.1333 675.522 57.2967 675.823 57.2967C675.952 57.2967 676.083 57.2667 676.206 57.2033C676.647 56.9742 677.068 56.7117 677.476 56.4283C676.575 61.0225 672.521 64.5 667.667 64.5C662.152 64.5 657.667 60.0142 657.667 54.5C657.667 54.04 657.293 53.6667 656.833 53.6667C656.373 53.6667 656 54.04 656 54.5C656 60.9333 661.233 66.1667 667.667 66.1667C673.387 66.1667 678.148 62.0258 679.136 56.5867C679.348 56.9017 679.548 57.2242 679.723 57.5617C679.872 57.8483 680.162 58.0117 680.464 58.0117C680.592 58.0117 680.725 57.9817 680.847 57.9183C681.255 57.7067 681.415 57.2042 681.203 56.795C680.975 56.3533 680.712 55.9317 680.428 55.5242C685.022 56.425 688.5 60.4792 688.5 65.3333C688.5 70.8475 684.014 75.3333 678.5 75.3333C678.04 75.3333 677.667 75.7058 677.667 76.1667C677.667 76.6275 678.04 77 678.5 77C684.933 77 690.167 71.7667 690.167 65.3333C690.167 59.6133 686.026 54.8517 680.587 53.8642C680.902 53.6525 681.224 53.4525 681.562 53.2775C681.97 53.0658 682.13 52.5633 681.918 52.1542C681.707 51.7458 681.207 51.5833 680.795 51.7975C680.353 52.0258 679.932 52.2892 679.524 52.5725C680.425 47.9783 684.479 44.5 689.333 44.5C694.847 44.5 699.333 48.9858 699.333 54.5C699.333 54.96 699.706 55.3333 700.167 55.3333C700.627 55.3333 701 54.96 701 54.5C701 48.0667 695.767 42.8333 689.333 42.8333Z" fill="#FFF3EA"/>
<path d="M696.422 65.7418C695.998 65.5534 695.508 65.7493 695.324 66.1709C694.913 67.1118 694.359 67.9809 693.678 68.7559C693.374 69.1018 693.408 69.6284 693.754 69.9318C693.913 70.0709 694.109 70.1393 694.304 70.1393C694.535 70.1393 694.766 70.0434 694.93 69.8559C695.724 68.9518 696.371 67.9368 696.851 66.8401C697.035 66.4176 696.843 65.9268 696.422 65.7418Z" fill="#FFF3EA"/>
<path d="M696.345 58.3683C695.903 58.495 695.647 58.9567 695.772 59.3992C696.03 60.2967 696.16 61.225 696.16 62.16L696.156 62.4425C696.145 62.9033 696.509 63.285 696.969 63.2958C696.977 63.2958 696.983 63.2958 696.989 63.2958C697.44 63.2958 697.811 62.9358 697.822 62.4825L697.827 62.1592C697.827 61.0692 697.674 59.9867 697.376 58.9392C697.249 58.4983 696.783 58.2483 696.345 58.3683Z" fill="#FFF3EA"/>
<path d="M694.692 56.315C694.872 56.315 695.054 56.2575 695.207 56.1367C695.568 55.8525 695.632 55.3283 695.347 54.9667C695.058 54.6 694.743 54.245 694.41 53.9108C693.897 53.3975 693.335 52.93 692.739 52.5225C692.358 52.2642 691.841 52.3608 691.581 52.74C691.32 53.12 691.418 53.6383 691.798 53.8983C692.308 54.2467 692.79 54.6475 693.231 55.0883C693.518 55.3758 693.789 55.6808 694.037 55.9958C694.201 56.2058 694.445 56.315 694.692 56.315Z" fill="#FFF3EA"/>
<path d="M685.075 50.5442C684.617 50.5867 684.28 50.9933 684.323 51.4517C684.366 51.91 684.775 52.2425 685.23 52.2033C686.254 52.1075 687.291 52.1708 688.29 52.3883C688.349 52.4008 688.409 52.4067 688.468 52.4067C688.852 52.4067 689.197 52.14 689.282 51.7492C689.378 51.2992 689.093 50.8558 688.643 50.7583C687.475 50.5058 686.263 50.4325 685.075 50.5442Z" fill="#FFF3EA"/>
<path d="M660.425 50.6641C660.501 50.6641 660.578 50.6533 660.655 50.6316C661.098 50.505 661.353 50.0433 661.227 49.6008C660.97 48.7041 660.84 47.775 660.84 46.8391L660.843 46.56C660.857 46.1 660.494 45.7166 660.034 45.7033C659.561 45.6858 659.19 46.0525 659.178 46.5125C659.174 46.6216 659.173 46.7308 659.173 46.8391C659.173 47.9308 659.325 49.0141 659.625 50.06C659.729 50.4258 660.063 50.6641 660.425 50.6641Z" fill="#FFF3EA"/>
<path d="M661.794 52.8625C661.432 53.1467 661.369 53.67 661.653 54.0325C661.942 54.4008 662.257 54.7567 662.591 55.0892C663.104 55.6025 663.666 56.0692 664.261 56.4767C664.405 56.575 664.569 56.6225 664.731 56.6225C664.997 56.6225 665.257 56.4958 665.419 56.2592C665.679 55.88 665.582 55.3608 665.202 55.1008C664.692 54.7517 664.21 54.3508 663.769 53.91C663.483 53.6242 663.213 53.3192 662.965 53.0033C662.679 52.6408 662.155 52.5783 661.794 52.8625Z" fill="#FFF3EA"/>
<path d="M660.579 43.2583C660.688 43.3058 660.801 43.3283 660.913 43.3283C661.233 43.3283 661.539 43.1417 661.677 42.8283C662.088 41.8883 662.642 41.0192 663.323 40.2442C663.627 39.8983 663.593 39.3725 663.247 39.0683C662.901 38.7642 662.374 38.7983 662.071 39.1442C661.276 40.0475 660.63 41.0633 660.15 42.1608C659.964 42.5833 660.157 43.0742 660.579 43.2583Z" fill="#FFF3EA"/>
<path d="M670.84 58.5066C671.203 58.5066 671.565 58.49 671.925 58.4566C672.383 58.4141 672.721 58.0083 672.678 57.55C672.636 57.0916 672.227 56.75 671.773 56.7966C670.751 56.8916 669.714 56.8291 668.711 56.6116C668.262 56.5133 667.818 56.8008 667.72 57.25C667.623 57.7 667.908 58.1433 668.358 58.2408C669.172 58.4166 670.007 58.5066 670.84 58.5066Z" fill="#FFF3EA"/>
<path d="M675.751 43.7199C675.304 43.6224 674.857 43.9083 674.76 44.3574C674.583 45.1708 674.494 46.0058 674.494 46.8399C674.494 47.2033 674.511 47.5649 674.545 47.9266C674.585 48.3583 674.948 48.6824 675.374 48.6824C675.4 48.6824 675.427 48.6816 675.452 48.6791C675.911 48.6366 676.247 48.2299 676.204 47.7716C676.175 47.4624 676.161 47.1516 676.161 46.8408C676.161 46.1258 676.237 45.4091 676.388 44.7116C676.486 44.2608 676.201 43.8174 675.751 43.7199Z" fill="#FFF3EA"/>
<path d="M683.17 37.2592C683.246 37.2592 683.323 37.2483 683.399 37.2267C684.295 36.97 685.224 36.84 686.16 36.84L686.44 36.8433C686.903 36.8567 687.284 36.4942 687.297 36.0333C687.309 35.5733 686.947 35.19 686.487 35.1775C685.274 35.1408 684.089 35.295 682.939 35.6242C682.497 35.7508 682.241 36.2125 682.367 36.655C682.473 37.0208 682.807 37.2592 683.17 37.2592Z" fill="#FFF3EA"/>
<path d="M690.172 37.6758C691.111 38.0867 691.98 38.6408 692.756 39.3217C692.914 39.4608 693.111 39.5292 693.306 39.5292C693.537 39.5292 693.768 39.4333 693.932 39.2458C694.236 38.9 694.202 38.3733 693.856 38.07C692.951 37.275 691.936 36.6283 690.839 36.1492C690.418 35.9642 689.926 36.1567 689.743 36.5792C689.558 37 689.75 37.4917 690.172 37.6758Z" fill="#FFF3EA"/>
<path d="M677.911 38.59C677.397 39.1033 676.93 39.6658 676.523 40.26C676.263 40.64 676.361 41.1583 676.74 41.4183C676.884 41.5167 677.048 41.5642 677.21 41.5642C677.476 41.5642 677.737 41.4375 677.898 41.2017C678.247 40.6917 678.647 40.2092 679.088 39.7683C679.373 39.4833 679.679 39.2125 679.996 38.9633C680.358 38.6783 680.42 38.155 680.136 37.7933C679.852 37.4317 679.327 37.3683 678.966 37.6533C678.597 37.9433 678.242 38.2583 677.911 38.59Z" fill="#FFF3EA"/>
<path d="M679.089 70.41C679.602 69.8967 680.069 69.335 680.477 68.7392C680.737 68.36 680.639 67.8408 680.259 67.5808C679.881 67.3208 679.362 67.4192 679.101 67.7984C678.752 68.3084 678.351 68.7909 677.91 69.2317C677.622 69.5192 677.318 69.7892 677.003 70.0359C676.641 70.32 676.577 70.8442 676.862 71.2059C677.026 71.415 677.271 71.525 677.518 71.525C677.698 71.525 677.88 71.4675 678.032 71.3475C678.399 71.0592 678.755 70.7442 679.089 70.41Z" fill="#FFF3EA"/>
<path d="M666.829 71.3242C665.888 70.9125 665.019 70.3592 664.245 69.6783C663.899 69.3742 663.372 69.4092 663.069 69.7542C662.765 70.1 662.799 70.6267 663.145 70.93C664.048 71.7233 665.063 72.37 666.162 72.8508C666.27 72.8992 666.384 72.9208 666.495 72.9208C666.816 72.9208 667.122 72.7342 667.259 72.4217C667.443 72 667.251 71.5092 666.829 71.3242Z" fill="#FFF3EA"/>
<path d="M681.25 65.2808C681.309 65.2942 681.369 65.2991 681.428 65.2991C681.812 65.2991 682.157 65.0325 682.242 64.6425C682.418 63.8283 682.507 62.9933 682.507 62.16C682.507 61.7983 682.49 61.4358 682.457 61.075C682.414 60.6166 682.014 60.275 681.55 60.3216C681.092 60.3641 680.754 60.77 680.797 61.2283C680.825 61.5383 680.84 61.8492 680.84 62.16C680.84 62.8742 680.763 63.5917 680.613 64.2892C680.515 64.7392 680.801 65.1825 681.25 65.2808Z" fill="#FFF3EA"/>
<path d="M673.602 71.7733C672.703 72.0308 671.774 72.1608 670.84 72.1608L670.557 72.1566C670.087 72.1533 669.714 72.5091 669.704 72.97C669.692 73.4308 670.057 73.8125 670.517 73.8233L670.841 73.8275C671.931 73.8275 673.014 73.675 674.061 73.3766C674.503 73.25 674.759 72.7883 674.633 72.3458C674.506 71.9033 674.044 71.6516 673.602 71.7733Z" fill="#FFF3EA"/>
<path d="M149.757 373.323L144.985 365.688C144.818 354.263 135.632 346 123 346C110.368 346 101.182 354.263 101.016 365.688L96.1522 373.47C95.9592 373.779 95.9492 374.167 96.1252 374.485C96.3022 374.803 96.6372 375 97.0002 375H103.559L106.916 378.675C106.94 378.701 106.974 378.712 107 378.735V384C107 384.553 107.447 385 108 385H116C116.553 385 117 384.553 117 384V379H118V384C118 384.553 118.447 385 119 385H127C127.553 385 128 384.553 128 384V379H129V384C129 384.553 129.447 385 130 385H138C138.553 385 139 384.553 139 384V378.735C139.026 378.712 139.06 378.701 139.084 378.675L142.441 375H149C149.007 374.999 149.014 375 149.02 375C149.573 375 150.02 374.553 150.02 374C150.02 373.739 149.92 373.502 149.757 373.323ZM123 348C134.212 348 142.425 355.094 142.949 365H103.051C103.575 355.094 111.788 348 123 348ZM115 383H109V379H115V383ZM126 383H120V379H126V383ZM137 383H131V379H137V383ZM137.905 377H108.095L106.268 375H139.733L137.905 377ZM98.8052 373L102.555 367H143.446L147.196 373H98.8052Z" fill="#FFF3EA"/>
<path d="M105.289 362.695C105.375 362.718 105.462 362.729 105.548 362.729C105.989 362.729 106.394 362.434 106.513 361.987C107.534 358.17 109.991 355.125 113.619 353.181C114.106 352.92 114.29 352.314 114.029 351.827C113.768 351.34 113.161 351.157 112.675 351.417C108.605 353.597 105.73 357.167 104.58 361.471C104.438 362.005 104.755 362.553 105.289 362.695Z" fill="#FFF3EA"/>
<path d="M116.593 351.893C116.688 351.893 116.783 351.879 116.879 351.851C117.734 351.596 118.637 351.395 119.562 351.254C120.108 351.171 120.483 350.661 120.4 350.115C120.317 349.569 119.809 349.191 119.261 349.277C118.245 349.431 117.251 349.652 116.307 349.934C115.778 350.092 115.477 350.649 115.635 351.178C115.764 351.612 116.162 351.893 116.593 351.893Z" fill="#FFF3EA"/>
<path d="M124.396 386.08C124.272 386.027 124.14 386 124.005 386H121.994C121.859 386 121.726 386.027 121.602 386.08C116.981 388.048 118.102 394.649 118.152 394.93C118.248 395.469 118.76 395.835 119.301 395.741C119.407 395.723 120.11 395.588 121.02 394.998C121.496 396.489 122.123 397.483 122.157 397.538C122.341 397.825 122.659 398 123.001 398C123.343 398 123.66 397.826 123.844 397.538C123.879 397.483 124.506 396.489 124.982 394.999C125.891 395.588 126.591 395.723 126.698 395.741C127.246 395.825 127.753 395.47 127.848 394.93C127.897 394.65 129.019 388.049 124.396 386.08ZM125.993 393.271C125.726 393.09 125.426 392.847 125.113 392.52C124.851 392.247 124.455 392.145 124.095 392.255C123.734 392.367 123.466 392.673 123.404 393.047C123.308 393.619 123.162 394.151 123.002 394.615C122.841 394.149 122.693 393.617 122.598 393.043C122.535 392.67 122.268 392.363 121.906 392.252C121.809 392.223 121.711 392.208 121.612 392.208C121.343 392.208 121.081 392.316 120.889 392.517C120.576 392.845 120.274 393.09 120.007 393.271C119.958 391.654 120.207 388.994 122.212 388H123.787C125.793 388.993 126.042 391.653 125.993 393.271Z" fill="#FFF3EA"/>
<path d="M135.124 386.08C135.001 386.027 134.867 386 134.732 386H132.721C132.586 386 132.453 386.027 132.329 386.08C127.707 388.048 128.828 394.649 128.878 394.93C128.974 395.469 129.488 395.835 130.027 395.741C130.133 395.723 130.837 395.588 131.747 394.998C132.223 396.489 132.85 397.483 132.884 397.538C133.068 397.825 133.387 398 133.729 398C134.071 398 134.388 397.826 134.572 397.538C134.607 397.483 135.234 396.489 135.71 394.999C136.619 395.588 137.319 395.723 137.426 395.741C137.975 395.825 138.481 395.47 138.576 394.93C138.625 394.65 139.745 388.049 135.124 386.08ZM136.721 393.271C136.454 393.09 136.154 392.846 135.841 392.52C135.579 392.247 135.184 392.145 134.823 392.255C134.462 392.367 134.194 392.673 134.132 393.047C134.036 393.619 133.889 394.151 133.729 394.615C133.569 394.149 133.421 393.617 133.326 393.044C133.263 392.67 132.996 392.364 132.635 392.252C132.537 392.223 132.439 392.208 132.34 392.208C132.071 392.208 131.809 392.316 131.617 392.517C131.302 392.847 130.999 393.092 130.73 393.274C130.677 391.659 130.922 388.998 132.94 388.001H134.515C136.52 388.993 136.77 391.652 136.721 393.271Z" fill="#FFF3EA"/>
<path d="M113.669 386.08C113.545 386.027 113.412 386 113.277 386H111.266C111.131 386 110.998 386.027 110.874 386.08C106.253 388.048 107.374 394.649 107.424 394.93C107.52 395.469 108.031 395.835 108.573 395.741C108.679 395.723 109.382 395.588 110.292 394.998C110.769 396.489 111.396 397.483 111.43 397.538C111.614 397.825 111.933 398 112.274 398C112.615 398 112.933 397.826 113.117 397.538C113.152 397.483 113.779 396.489 114.255 394.999C115.164 395.588 115.864 395.723 115.971 395.741C116.522 395.825 117.026 395.47 117.121 394.93C117.171 394.65 118.291 388.049 113.669 386.08ZM115.267 393.271C115 393.09 114.7 392.846 114.387 392.52C114.125 392.247 113.729 392.145 113.369 392.255C113.008 392.367 112.74 392.673 112.678 393.047C112.582 393.619 112.435 394.151 112.275 394.616C112.114 394.15 111.966 393.617 111.871 393.043C111.808 392.67 111.541 392.363 111.179 392.252C111.082 392.223 110.984 392.208 110.885 392.208C110.616 392.208 110.354 392.316 110.161 392.518C109.848 392.846 109.547 393.09 109.28 393.271C109.231 391.654 109.48 388.994 111.485 388H113.06C115.065 388.993 115.315 391.652 115.267 393.271Z" fill="#FFF3EA"/>
<path d="M680.64 165.965C680.069 165.6 679.332 165.604 678.757 165.973C678.663 166.033 676.423 167.482 673.42 170.485C667.43 176.475 656.915 190.356 657.342 213.494C655.562 214.43 654.036 215.626 652.741 217.037C652.736 217.042 652.731 217.047 652.726 217.052C652.721 217.057 652.716 217.062 652.712 217.068C640.214 230.738 648.854 263.893 649.276 265.469C649.463 266.168 650.063 266.675 650.783 266.742C651.314 266.793 651.829 266.597 652.194 266.232C652.326 266.1 652.437 265.948 652.524 265.776C659.539 251.847 666.739 250.617 667.216 250.55L691.336 250.433C691.862 250.502 699.035 251.685 705.902 265.518C706.223 266.165 706.911 266.542 707.632 266.468C708.044 266.425 708.418 266.24 708.701 265.958C708.912 265.747 709.07 265.483 709.154 265.182C709.596 263.598 718.674 230.256 706.166 216.739C706.141 216.709 706.114 216.682 706.088 216.654C704.807 215.288 703.299 214.133 701.538 213.234C702.387 180.356 680.926 166.146 680.64 165.965ZM664.824 247.611C664.349 247.785 663.808 248.016 663.214 248.315C659.134 238.017 656.661 228.1 655.868 218.799C656.382 218.302 656.93 217.843 657.523 217.43C658.139 226.228 660.33 236.267 664.824 247.611ZM651.661 260.146C649.966 251.808 647.215 233.579 652.795 222.959C653.925 231.65 656.41 240.795 660.196 250.225C657.655 252.141 654.665 255.2 651.661 260.146ZM675.881 172.946C677.473 171.354 678.826 170.245 679.675 169.597C685.033 173.708 710.835 196.821 690.249 246.94L668.359 247.048C651.089 204.261 667.827 181 675.881 172.946ZM706.828 259.888C703.866 254.963 700.904 251.928 698.377 250.035C702.266 240.529 704.837 231.319 706.03 222.581C711.605 233.136 708.625 251.51 706.828 259.888ZM702.982 218.503C702.119 227.833 699.56 237.795 695.378 248.157C694.785 247.862 694.242 247.635 693.767 247.465C698.365 236.068 700.648 225.994 701.331 217.169C701.922 217.57 702.47 218.016 702.982 218.503Z" fill="#0E1B1B"/>
<path d="M680.64 165.965C680.069 165.6 679.332 165.604 678.757 165.973C678.663 166.033 676.423 167.482 673.42 170.485C667.43 176.475 656.915 190.356 657.342 213.494C655.562 214.43 654.036 215.626 652.741 217.037C652.736 217.042 652.731 217.047 652.726 217.052C652.721 217.057 652.716 217.062 652.712 217.068C640.214 230.738 648.854 263.893 649.276 265.469C649.463 266.168 650.063 266.675 650.783 266.742C651.314 266.793 651.829 266.597 652.194 266.232C652.326 266.1 652.437 265.948 652.524 265.776C659.539 251.847 666.739 250.617 667.216 250.55L691.336 250.433C691.862 250.502 699.035 251.685 705.902 265.518C706.223 266.165 706.911 266.542 707.632 266.468C708.044 266.425 708.418 266.24 708.701 265.958C708.912 265.747 709.07 265.483 709.154 265.182C709.596 263.598 718.674 230.256 706.166 216.739C706.141 216.709 706.114 216.682 706.088 216.654C704.807 215.288 703.299 214.133 701.538 213.234C702.387 180.356 680.926 166.146 680.64 165.965ZM664.824 247.611C664.349 247.785 663.808 248.016 663.214 248.315C659.134 238.017 656.661 228.1 655.868 218.799C656.382 218.302 656.93 217.843 657.523 217.43C658.139 226.228 660.33 236.267 664.824 247.611ZM651.661 260.146C649.966 251.808 647.215 233.579 652.795 222.959C653.925 231.65 656.41 240.795 660.196 250.225C657.655 252.141 654.665 255.2 651.661 260.146ZM675.881 172.946C677.473 171.354 678.826 170.245 679.675 169.597C685.033 173.708 710.835 196.821 690.249 246.94L668.359 247.048C651.089 204.261 667.827 181 675.881 172.946ZM706.828 259.888C703.866 254.963 700.904 251.928 698.377 250.035C702.266 240.529 704.837 231.319 706.03 222.581C711.605 233.136 708.625 251.51 706.828 259.888ZM702.982 218.503C702.119 227.833 699.56 237.795 695.378 248.157C694.785 247.862 694.242 247.635 693.767 247.465C698.365 236.068 700.648 225.994 701.331 217.169C701.922 217.57 702.47 218.016 702.982 218.503Z" stroke="black"/>
<path d="M686.931 201.652C688.923 199.66 690.026 197.021 690.04 194.219C690.055 191.416 688.977 188.786 687.004 186.814C685.032 184.841 682.404 183.764 679.599 183.778C676.797 183.792 674.157 184.897 672.166 186.887C670.175 188.878 669.071 191.519 669.055 194.322C669.027 200.106 673.711 204.79 679.495 204.762C682.298 204.749 684.939 203.644 686.931 201.652ZM672.552 194.304C672.563 192.436 673.3 190.675 674.627 189.348C675.954 188.021 677.714 187.285 679.582 187.275C681.452 187.265 683.204 187.984 684.519 189.299C685.834 190.614 686.553 192.366 686.543 194.236C686.533 196.104 685.797 197.864 684.47 199.191C683.143 200.518 681.382 201.255 679.514 201.266C675.656 201.285 672.533 198.162 672.552 194.304Z" fill="#0E1B1B"/>
<path d="M686.931 201.652C688.923 199.66 690.026 197.021 690.04 194.219C690.055 191.416 688.977 188.786 687.004 186.814C685.032 184.841 682.404 183.764 679.599 183.778C676.797 183.792 674.157 184.897 672.166 186.887C670.175 188.878 669.071 191.519 669.055 194.322C669.027 200.106 673.711 204.79 679.495 204.762C682.298 204.749 684.939 203.644 686.931 201.652ZM672.552 194.304C672.563 192.436 673.3 190.675 674.627 189.348C675.954 188.021 677.714 187.285 679.582 187.275C681.452 187.265 683.204 187.984 684.519 189.299C685.834 190.614 686.553 192.366 686.543 194.236C686.533 196.104 685.797 197.864 684.47 199.191C683.143 200.518 681.382 201.255 679.514 201.266C675.656 201.285 672.533 198.162 672.552 194.304Z" stroke="black"/>
<path d="M683.239 197.961C684.235 196.965 684.788 195.645 684.794 194.244C684.799 192.843 684.262 191.527 683.276 190.542C682.29 189.555 680.974 189.017 679.574 189.024C676.771 189.037 674.314 191.496 674.302 194.295C674.295 195.694 674.834 197.008 675.821 197.996C676.807 198.984 678.122 199.524 679.522 199.517C680.922 199.511 682.243 198.957 683.239 197.961ZM677.8 194.276C677.802 193.811 677.985 193.372 678.318 193.039C678.65 192.708 679.09 192.524 679.556 192.522C680.031 192.52 680.459 192.695 680.791 193.027C681.124 193.36 681.298 193.787 681.297 194.261C681.292 195.203 680.479 196.013 679.538 196.019C679.073 196.022 678.637 195.841 678.307 195.511C677.977 195.181 677.796 194.745 677.8 194.276Z" fill="#0E1B1B"/>
<path d="M683.239 197.961C684.235 196.965 684.788 195.645 684.794 194.244C684.799 192.843 684.262 191.527 683.276 190.542C682.29 189.555 680.974 189.017 679.574 189.024C676.771 189.037 674.314 191.496 674.302 194.295C674.295 195.694 674.834 197.008 675.821 197.996C676.807 198.984 678.122 199.524 679.522 199.517C680.922 199.511 682.243 198.957 683.239 197.961ZM677.8 194.276C677.802 193.811 677.985 193.372 678.318 193.039C678.65 192.708 679.09 192.524 679.556 192.522C680.031 192.52 680.459 192.695 680.791 193.027C681.124 193.36 681.298 193.787 681.297 194.261C681.292 195.203 680.479 196.013 679.538 196.019C679.073 196.022 678.637 195.841 678.307 195.511C677.977 195.181 677.796 194.745 677.8 194.276Z" stroke="black"/>
<path d="M682.913 257.317L675.56 257.353C675.315 257.354 675.071 257.406 674.845 257.508C672.352 258.631 670.202 260.087 668.452 261.837C660.461 269.829 663.173 281.172 663.293 281.653C663.513 282.539 664.382 283.098 665.283 282.935C665.443 282.906 668.861 282.253 672.965 278.74C674.581 285.648 677.445 290.439 677.584 290.67C677.898 291.19 678.464 291.505 679.075 291.502C679.684 291.5 680.253 291.177 680.572 290.656C680.712 290.425 683.626 285.607 685.307 278.687C689.37 282.154 692.77 282.772 692.938 282.801C693.517 282.898 694.087 282.698 694.481 282.304C694.697 282.087 694.862 281.812 694.943 281.495C694.986 281.324 699.171 264.345 683.625 257.465C683.4 257.367 683.158 257.316 682.913 257.317ZM691.886 278.772C690.376 278.106 688.015 276.737 685.532 274.016C685.082 273.521 684.384 273.332 683.741 273.527C683.458 273.614 683.206 273.767 683.003 273.97C682.746 274.227 682.569 274.562 682.508 274.933C681.761 279.492 680.249 283.406 679.097 285.913C677.972 283.423 676.502 279.529 675.797 274.958C675.695 274.294 675.221 273.753 674.579 273.563C673.936 273.375 673.251 273.567 672.783 274.069C670.288 276.803 667.91 278.205 666.388 278.887C666.048 275.704 666.069 269.139 670.913 264.295C672.281 262.927 673.965 261.768 675.922 260.847L682.514 260.815C692.343 265.373 692.378 274.746 691.886 278.772Z" fill="#0E1B1B"/>
<path d="M682.913 257.317L675.56 257.353C675.315 257.354 675.071 257.406 674.845 257.508C672.352 258.631 670.202 260.087 668.452 261.837C660.461 269.829 663.173 281.172 663.293 281.653C663.513 282.539 664.382 283.098 665.283 282.935C665.443 282.906 668.861 282.253 672.965 278.74C674.581 285.648 677.445 290.439 677.584 290.67C677.898 291.19 678.464 291.505 679.075 291.502C679.684 291.5 680.253 291.177 680.572 290.656C680.712 290.425 683.626 285.607 685.307 278.687C689.37 282.154 692.77 282.772 692.938 282.801C693.517 282.898 694.087 282.698 694.481 282.304C694.697 282.087 694.862 281.812 694.943 281.495C694.986 281.324 699.171 264.345 683.625 257.465C683.4 257.367 683.158 257.316 682.913 257.317ZM691.886 278.772C690.376 278.106 688.015 276.737 685.532 274.016C685.082 273.521 684.384 273.332 683.741 273.527C683.458 273.614 683.206 273.767 683.003 273.97C682.746 274.227 682.569 274.562 682.508 274.933C681.761 279.492 680.249 283.406 679.097 285.913C677.972 283.423 676.502 279.529 675.797 274.958C675.695 274.294 675.221 273.753 674.579 273.563C673.936 273.375 673.251 273.567 672.783 274.069C670.288 276.803 667.91 278.205 666.388 278.887C666.048 275.704 666.069 269.139 670.913 264.295C672.281 262.927 673.965 261.768 675.922 260.847L682.514 260.815C692.343 265.373 692.378 274.746 691.886 278.772Z" stroke="black"/>
<path d="M446.066 221.303C445.651 219.859 445.068 218.584 444.316 217.477C443.565 216.35 442.646 215.4 441.558 214.629C440.49 213.838 439.265 213.235 437.88 212.82C436.516 212.405 435.004 212.197 433.343 212.197C430.238 212.197 427.51 212.968 425.157 214.511C422.824 216.053 421.004 218.297 419.699 221.243C418.394 224.17 417.742 227.748 417.742 231.98C417.742 236.211 418.385 239.81 419.67 242.776C420.955 245.742 422.774 248.006 425.127 249.568C427.48 251.11 430.258 251.881 433.461 251.881C436.368 251.881 438.849 251.367 440.906 250.339C442.982 249.291 444.564 247.818 445.651 245.92C446.758 244.021 447.312 241.777 447.312 239.187L449.922 239.573H434.262V229.904H459.68V237.556C459.68 242.894 458.553 247.482 456.299 251.318C454.045 255.134 450.94 258.08 446.986 260.156C443.031 262.212 438.503 263.241 433.402 263.241C427.707 263.241 422.705 261.985 418.394 259.474C414.084 256.943 410.723 253.354 408.31 248.708C405.918 244.041 404.722 238.505 404.722 232.098C404.722 227.175 405.433 222.786 406.857 218.93C408.3 215.054 410.317 211.772 412.908 209.083C415.498 206.394 418.513 204.347 421.954 202.944C425.394 201.54 429.121 200.838 433.135 200.838C436.575 200.838 439.779 201.342 442.745 202.35C445.71 203.339 448.34 204.743 450.634 206.562C452.947 208.381 454.836 210.546 456.299 213.057C457.762 215.549 458.701 218.297 459.116 221.303H446.066ZM525.145 232.039C525.145 238.663 523.889 244.298 521.378 248.945C518.887 253.591 515.486 257.141 511.175 259.592C506.885 262.024 502.06 263.241 496.702 263.241C491.304 263.241 486.46 262.015 482.169 259.563C477.878 257.111 474.487 253.562 471.996 248.915C469.504 244.269 468.259 238.643 468.259 232.039C468.259 225.415 469.504 219.78 471.996 215.133C474.487 210.487 477.878 206.948 482.169 204.516C486.46 202.064 491.304 200.838 496.702 200.838C502.06 200.838 506.885 202.064 511.175 204.516C515.486 206.948 518.887 210.487 521.378 215.133C523.889 219.78 525.145 225.415 525.145 232.039ZM512.125 232.039C512.125 227.748 511.482 224.13 510.197 221.184C508.931 218.238 507.142 216.003 504.828 214.481C502.515 212.958 499.806 212.197 496.702 212.197C493.598 212.197 490.889 212.958 488.575 214.481C486.262 216.003 484.463 218.238 483.177 221.184C481.912 224.13 481.279 227.748 481.279 232.039C481.279 236.33 481.912 239.948 483.177 242.894C484.463 245.841 486.262 248.075 488.575 249.597C490.889 251.12 493.598 251.881 496.702 251.881C499.806 251.881 502.515 251.12 504.828 249.597C507.142 248.075 508.931 245.841 510.197 242.894C511.482 239.948 512.125 236.33 512.125 232.039ZM549.517 201.668L548.361 244.199H537.505L536.319 201.668H549.517ZM542.933 263.181C540.975 263.181 539.295 262.489 537.891 261.105C536.487 259.701 535.795 258.021 535.815 256.063C535.795 254.125 536.487 252.464 537.891 251.08C539.295 249.696 540.975 249.004 542.933 249.004C544.811 249.004 546.462 249.696 547.886 251.08C549.31 252.464 550.031 254.125 550.051 256.063C550.031 257.368 549.685 258.564 549.013 259.652C548.361 260.719 547.5 261.58 546.433 262.232C545.365 262.865 544.198 263.181 542.933 263.181ZM600.397 262.41V201.668H613.24V251.822H639.28V262.41H600.397Z" fill="#0E1B1B"/>
<path d="M761.728 201.668H774.57V241.115C774.57 245.544 773.513 249.419 771.397 252.741C769.301 256.063 766.365 258.653 762.588 260.512C758.812 262.351 754.412 263.27 749.39 263.27C744.348 263.27 739.938 262.351 736.162 260.512C732.385 258.653 729.449 256.063 727.353 252.741C725.257 249.419 724.209 245.544 724.209 241.115V201.668H737.052V240.017C737.052 242.331 737.556 244.387 738.564 246.187C739.592 247.986 741.036 249.4 742.894 250.428C744.753 251.456 746.918 251.97 749.39 251.97C751.881 251.97 754.046 251.456 755.885 250.428C757.744 249.4 759.177 247.986 760.186 246.187C761.214 244.387 761.728 242.331 761.728 240.017V201.668ZM835.942 201.668V262.41H824.85L798.424 224.18H797.979V262.41H785.136V201.668H796.407L822.625 239.869H823.159V201.668H835.942ZM900.147 222.934H887.156C886.919 221.253 886.435 219.76 885.703 218.455C884.971 217.131 884.032 216.003 882.885 215.074C881.739 214.145 880.414 213.433 878.911 212.939C877.428 212.444 875.817 212.197 874.077 212.197C870.933 212.197 868.194 212.978 865.861 214.54C863.528 216.083 861.719 218.337 860.433 221.303C859.148 224.249 858.506 227.828 858.506 232.039C858.506 236.369 859.148 240.008 860.433 242.954C861.738 245.9 863.557 248.124 865.891 249.627C868.224 251.13 870.923 251.881 873.988 251.881C875.708 251.881 877.3 251.654 878.763 251.199C880.246 250.744 881.561 250.082 882.707 249.212C883.854 248.322 884.803 247.244 885.555 245.979C886.326 244.713 886.86 243.27 887.156 241.649L900.147 241.708C899.811 244.496 898.97 247.185 897.626 249.775C896.301 252.346 894.512 254.649 892.258 256.686C890.023 258.703 887.354 260.304 884.25 261.491C881.165 262.657 877.675 263.241 873.78 263.241C868.362 263.241 863.518 262.015 859.247 259.563C854.996 257.111 851.635 253.562 849.163 248.915C846.711 244.269 845.485 238.643 845.485 232.039C845.485 225.415 846.731 219.78 849.222 215.133C851.714 210.487 855.095 206.948 859.366 204.516C863.637 202.064 868.441 200.838 873.78 200.838C877.3 200.838 880.562 201.332 883.567 202.321C886.593 203.309 889.272 204.753 891.605 206.651C893.938 208.529 895.836 210.833 897.3 213.562C898.783 216.29 899.732 219.414 900.147 222.934ZM909.356 262.41V201.668H922.198V226.73H948.269V201.668H961.081V262.41H948.269V237.318H922.198V262.41H909.356Z" fill="#0E1B1B"/>
<path d="M265.225 332.325C265.225 338.387 260.129 343.375 253.75 343.375C247.371 343.375 242.275 338.387 242.275 332.325C242.275 326.263 247.371 321.275 253.75 321.275C260.129 321.275 265.225 326.263 265.225 332.325Z" fill="#0E1B1B" stroke="#FFF3EA" stroke-width="2.55"/>
<path d="M1106.23 330.325C1106.23 336.387 1101.13 341.375 1094.75 341.375C1088.37 341.375 1083.28 336.387 1083.28 330.325C1083.28 324.263 1088.37 319.275 1094.75 319.275C1101.13 319.275 1106.23 324.263 1106.23 330.325Z" fill="#0E1B1B" stroke="#FFF3EA" stroke-width="2.55"/>
<path d="M1106.23 139.325C1106.23 145.387 1101.13 150.375 1094.75 150.375C1088.37 150.375 1083.28 145.387 1083.28 139.325C1083.28 133.263 1088.37 128.275 1094.75 128.275C1101.13 128.275 1106.23 133.263 1106.23 139.325Z" fill="#0E1B1B" stroke="#FFF3EA" stroke-width="2.55"/>
<path d="M269.225 140.325C269.225 146.387 264.129 151.375 257.75 151.375C251.371 151.375 246.275 146.387 246.275 140.325C246.275 134.263 251.371 129.275 257.75 129.275C264.129 129.275 269.225 134.263 269.225 140.325Z" fill="#0E1B1B" stroke="#FFF3EA" stroke-width="2.55"/>
<line x1="126" y1="228" x2="265" y2="228" stroke="#0E1B1B" stroke-width="4"/>
<line x1="129" y1="238" x2="220" y2="238" stroke="#0E1B1B" stroke-width="4"/>
<line x1="1124" y1="238" x2="1215" y2="238" stroke="#0E1B1B" stroke-width="4"/>
<line x1="1078" y1="228" x2="1217" y2="228" stroke="#0E1B1B" stroke-width="4"/>
</svg>
